<svg width="53" height="53" viewBox="0 0 53 53" fill="none" xmlns="http://www.w3.org/2000/svg">
<rect x="52.5" y="52.5" width="52" height="52" rx="9.5" transform="rotate(-180 52.5 52.5)" stroke="#352E1F"/>
<path d="M31.5115 35.5001C31.6663 35.3427 31.7892 35.1557 31.873 34.9499C31.9569 34.744 32 34.5233 32 34.3005C32 34.0776 31.9569 33.8569 31.873 33.6511C31.7892 33.4452 31.6663 33.2583 31.5115 33.1008L25.03 26.4985L31.5115 19.8962C31.8238 19.578 31.9993 19.1465 31.9993 18.6966C31.9993 18.2466 31.8238 17.8151 31.5115 17.4969C31.1991 17.1787 30.7755 17 30.3338 17C29.8921 17 29.4684 17.1787 29.1561 17.4969L21.4885 25.3074C21.3337 25.4648 21.2108 25.6518 21.127 25.8576C21.0431 26.0635 21 26.2842 21 26.507C21 26.7299 21.0431 26.9506 21.127 27.1564C21.2108 27.3623 21.3337 27.5492 21.4885 27.7067L29.1561 35.5171C29.7909 36.1638 30.86 36.1638 31.5115 35.5001Z" fill="#352E1F"/>
</svg>
