<svg width="31" height="33" viewBox="0 0 31 33" fill="none" xmlns="http://www.w3.org/2000/svg">
<path d="M1.83333 14.6667H12.8333C13.3196 14.6667 13.7859 14.4735 14.1297 14.1297C14.4735 13.7859 14.6667 13.3196 14.6667 12.8333V1.83333C14.6667 1.3471 14.4735 0.880787 14.1297 0.536971C13.7859 0.193154 13.3196 0 12.8333 0H1.83333C1.3471 0 0.880787 0.193154 0.536971 0.536971C0.193154 0.880787 0 1.3471 0 1.83333V12.8333C0 13.3196 0.193154 13.7859 0.536971 14.1297C0.880787 14.4735 1.3471 14.6667 1.83333 14.6667ZM20.1667 14.6667H31.1667C31.6529 14.6667 32.1192 14.4735 32.463 14.1297C32.8068 13.7859 33 13.3196 33 12.8333V1.83333C33 1.3471 32.8068 0.880787 32.463 0.536971C32.1192 0.193154 31.6529 0 31.1667 0H20.1667C19.6804 0 19.2141 0.193154 18.8703 0.536971C18.5265 0.880787 18.3333 1.3471 18.3333 1.83333V12.8333C18.3333 13.3196 18.5265 13.7859 18.8703 14.1297C19.2141 14.4735 19.6804 14.6667 20.1667 14.6667ZM1.83333 33H12.8333C13.3196 33 13.7859 32.8068 14.1297 32.463C14.4735 32.1192 14.6667 31.6529 14.6667 31.1667V20.1667C14.6667 19.6804 14.4735 19.2141 14.1297 18.8703C13.7859 18.5265 13.3196 18.3333 12.8333 18.3333H1.83333C1.3471 18.3333 0.880787 18.5265 0.536971 18.8703C0.193154 19.2141 0 19.6804 0 20.1667V31.1667C0 31.6529 0.193154 32.1192 0.536971 32.463C0.880787 32.8068 1.3471 33 1.83333 33ZM25.6667 33C29.711 33 33 29.711 33 25.6667C33 21.6223 29.711 18.3333 25.6667 18.3333C21.6223 18.3333 18.3333 21.6223 18.3333 25.6667C18.3333 29.711 21.6223 33 25.6667 33Z" fill="#FEB528"/>
</svg>
