<svg width="36" height="33" viewBox="0 0 36 33" fill="none" xmlns="http://www.w3.org/2000/svg">
<path d="M23.5688 12.1595C24.1211 12.1596 24.6542 12.3626 25.0668 12.7299C25.4793 13.0971 25.7426 13.6031 25.8067 14.1517L25.8225 14.4132V24.2572C25.8372 26.3122 25.0456 28.2911 23.6177 29.769C22.1898 31.247 20.2394 32.1062 18.185 32.1623C16.1307 32.2183 14.1363 31.4667 12.63 30.0688C11.1236 28.6709 10.2253 26.7381 10.128 24.6853L10.1167 24.2572V14.4132C10.1168 13.8608 10.3198 13.3278 10.6871 12.9152C11.0543 12.5027 11.5603 12.2393 12.1089 12.1753L12.3704 12.1595H23.5688ZM8.46926 12.1595C8.14135 12.7253 7.94134 13.3561 7.88331 14.0075L7.86303 14.4132V24.2572L7.8743 24.7304C7.94191 26.1795 8.31376 27.5475 8.92901 28.7757C7.98003 29.1743 6.94931 29.3395 5.92332 29.2574C4.89732 29.1753 3.90598 28.8483 3.03245 28.3039C2.15892 27.7595 1.42868 27.0136 0.903002 26.1287C0.37732 25.2438 0.0715246 24.2457 0.0112686 23.2182L0 22.8396V14.4132C7.28171e-05 13.8612 0.202731 13.3284 0.569535 12.9159C0.936339 12.5034 1.44178 12.2399 1.98998 12.1753L2.25366 12.1595H8.46701H8.46926ZM27.4721 12.1595H33.7463C34.2987 12.1596 34.8317 12.3626 35.2443 12.7299C35.6568 13.0971 35.9202 13.6031 35.9842 14.1517L36 14.4132V22.8419C36.0001 23.9076 35.7355 24.9567 35.23 25.895C34.7245 26.8333 33.994 27.6314 33.1039 28.2176C32.2138 28.8038 31.1921 29.1599 30.1305 29.2537C29.0689 29.3476 28.0005 29.1764 27.0214 28.7555C27.627 27.5393 27.9797 26.213 28.0581 24.8566L28.0761 24.2572V14.4132L28.0626 14.0774C28.0134 13.4016 27.8115 12.7459 27.4721 12.1595ZM17.9662 0.834839C19.2976 0.834839 20.5745 1.36373 21.5159 2.30517C22.4573 3.24661 22.9862 4.52348 22.9862 5.85487C22.9862 7.18627 22.4573 8.46313 21.5159 9.40457C20.5745 10.346 19.2976 10.8749 17.9662 10.8749C16.6348 10.8749 15.3579 10.346 14.4165 9.40457C13.4751 8.46313 12.9462 7.18627 12.9462 5.85487C12.9462 4.52348 13.4751 3.24661 14.4165 2.30517C15.3579 1.36373 16.6348 0.834839 17.9662 0.834839ZM29.2052 2.25014C30.3489 2.25014 31.4458 2.70448 32.2545 3.51321C33.0633 4.32193 33.5176 5.41881 33.5176 6.56252C33.5176 7.70624 33.0633 8.80311 32.2545 9.61184C31.4458 10.4206 30.3489 10.8749 29.2052 10.8749C28.0615 10.8749 26.9646 10.4206 26.1559 9.61184C25.3472 8.80311 24.8928 7.70624 24.8928 6.56252C24.8928 5.41881 25.3472 4.32193 26.1559 3.51321C26.9646 2.70448 28.0615 2.25014 29.2052 2.25014ZM6.76099 2.25014C7.9047 2.25014 9.00157 2.70448 9.8103 3.51321C10.619 4.32193 11.0734 5.41881 11.0734 6.56252C11.0734 7.70624 10.619 8.80311 9.8103 9.61184C9.00157 10.4206 7.9047 10.8749 6.76099 10.8749C5.61727 10.8749 4.5204 10.4206 3.71167 9.61184C2.90294 8.80311 2.4486 7.70624 2.4486 6.56252C2.4486 5.41881 2.90294 4.32193 3.71167 3.51321C4.5204 2.70448 5.61727 2.25014 6.76099 2.25014Z" fill="#FEB528"/>
</svg>
