<svg width="53" height="53" viewBox="0 0 53 53" fill="none" xmlns="http://www.w3.org/2000/svg">
<rect width="53" height="53" rx="10" fill="#352E1F"/>
<path d="M21.4885 17.4999C21.3337 17.6573 21.2108 17.8443 21.127 18.0501C21.0431 18.256 21 18.4767 21 18.6995C21 18.9224 21.0431 19.1431 21.127 19.3489C21.2108 19.5548 21.3337 19.7417 21.4885 19.8992L27.97 26.5015L21.4885 33.1038C21.1762 33.422 21.0007 33.8535 21.0007 34.3034C21.0007 34.7534 21.1762 35.1849 21.4885 35.5031C21.8009 35.8213 22.2245 36 22.6662 36C23.1079 36 23.5316 35.8213 23.8439 35.5031L31.5115 27.6926C31.6663 27.5352 31.7892 27.3482 31.873 27.1424C31.9569 26.9365 32 26.7158 32 26.493C32 26.2701 31.9569 26.0494 31.873 25.8436C31.7892 25.6377 31.6663 25.4508 31.5115 25.2933L23.8439 17.4829C23.2091 16.8362 22.14 16.8362 21.4885 17.4999Z" fill="white"/>
</svg>
