<svg width="45" height="29" viewBox="0 0 45 29" fill="none" xmlns="http://www.w3.org/2000/svg">
<path d="M2.06981 28.7609C1.87309 28.8991 1.64207 28.9808 1.40196 28.997C1.16186 29.0132 0.921905 28.9633 0.708309 28.8527C0.494713 28.7422 0.315684 28.5752 0.190772 28.3701C0.0658605 28.1649 -0.00013226 27.9295 1.99009e-07 27.6895V1.3105C-0.00013226 1.0705 0.0658605 0.835076 0.190772 0.629936C0.315684 0.424795 0.494713 0.257827 0.708309 0.147263C0.921905 0.0366987 1.16186 -0.0132098 1.40196 0.00298616C1.64207 0.0191821 1.87309 0.100861 2.06981 0.239102L20.8058 13.4312C20.9771 13.5522 21.1168 13.7124 21.2133 13.8984C21.3097 14.0843 21.36 14.2907 21.36 14.5C21.36 14.7093 21.3097 14.9156 21.2133 15.1016C21.1168 15.2876 20.9771 15.4478 20.8058 15.5688L2.06981 28.7609ZM23.64 1.3105C23.6399 1.0705 23.7059 0.835076 23.8308 0.629936C23.9557 0.424795 24.1347 0.257827 24.3483 0.147263C24.5619 0.0366987 24.8019 -0.0132098 25.042 0.00298616C25.2821 0.0191821 25.5131 0.100861 25.7098 0.239102L44.4458 13.4312C44.6171 13.5522 44.7568 13.7124 44.8533 13.8984C44.9497 14.0843 45 14.2907 45 14.5C45 14.7093 44.9497 14.9156 44.8533 15.1016C44.7568 15.2876 44.6171 15.4478 44.4458 15.5688L25.7098 28.7609C25.5131 28.8991 25.2821 28.9808 25.042 28.997C24.8019 29.0132 24.5619 28.9633 24.3483 28.8527C24.1347 28.7422 23.9557 28.5752 23.8308 28.3701C23.7059 28.1649 23.6399 27.9295 23.64 27.6895V1.3105Z" fill="#FEB528"/>
</svg>
