<svg width="23" height="23" viewBox="0 0 23 23" fill="none" xmlns="http://www.w3.org/2000/svg">
<path d="M6.25 11.5L10.75 15.25L16.75 7.75M11.5 22C10.1211 22 8.75574 21.7284 7.48182 21.2007C6.20791 20.6731 5.05039 19.8996 4.07538 18.9246C3.10036 17.9496 2.32694 16.7921 1.79927 15.5182C1.27159 14.2443 1 12.8789 1 11.5C1 10.1211 1.27159 8.75574 1.79927 7.48182C2.32694 6.20791 3.10036 5.05039 4.07538 4.07538C5.05039 3.10036 6.20791 2.32694 7.48182 1.79926C8.75574 1.27159 10.1211 1 11.5 1C14.2848 1 16.9555 2.10625 18.9246 4.07538C20.8938 6.04451 22 8.71523 22 11.5C22 14.2848 20.8938 16.9555 18.9246 18.9246C16.9555 20.8938 14.2848 22 11.5 22Z" stroke="#FEB528" stroke-width="2"/>
</svg>
