<svg width="24" height="20" viewBox="0 0 24 20" fill="none" xmlns="http://www.w3.org/2000/svg">
<path d="M5.17951 1.13293C5.07936 1.03075 4.96007 0.949307 4.82844 0.893252C4.69681 0.837197 4.55543 0.807627 4.41236 0.806234C4.2693 0.804841 4.12737 0.831652 3.99467 0.885133C3.86198 0.938615 3.74112 1.01772 3.63901 1.11793C2.48393 2.2663 1.56768 3.63201 0.943104 5.13629C0.318531 6.64057 -0.00199795 8.25364 9.37006e-06 9.88242C-0.00186406 11.5737 0.34389 13.2473 1.01581 14.7994C1.68774 16.3515 2.67149 17.7489 3.90601 18.9049C4.11379 19.097 4.38825 19.2005 4.67111 19.1935C4.95398 19.1865 5.22298 19.0695 5.42101 18.8674C5.895 18.3934 5.8365 17.6389 5.38051 17.2024C4.38975 16.2582 3.60134 15.1224 3.06318 13.8641C2.52503 12.6057 2.24836 11.251 2.25001 9.88242C2.25001 7.11342 3.36151 4.60243 5.16451 2.77543C5.5995 2.33293 5.64451 1.59793 5.17951 1.13293Z" fill="#FF7D7D"/>
<path d="M7.821 3.77592C7.62345 3.57266 7.35338 3.45599 7.06996 3.45149C6.78655 3.44699 6.51291 3.55503 6.309 3.75193C5.49725 4.55303 4.85295 5.50761 4.41363 6.56009C3.9743 7.61257 3.74872 8.74193 3.75001 9.88242C3.75001 12.4204 4.84501 14.7019 6.5895 16.2784C6.79537 16.4603 7.06334 16.556 7.33786 16.5457C7.61237 16.5353 7.87239 16.4198 8.064 16.2229C8.556 15.7309 8.4645 14.9569 8.0025 14.5219C7.36922 13.9266 6.86476 13.2077 6.52033 12.4097C6.1759 11.6117 5.99881 10.7516 6 9.88242C6 8.15742 6.6855 6.59142 7.8 5.44242C8.229 5.00142 8.2995 4.25292 7.821 3.77592Z" fill="#FF7D7D"/>
<path d="M16.179 3.77592C16.3766 3.57266 16.6466 3.45599 16.93 3.45149C17.2135 3.44699 17.4871 3.55503 17.691 3.75193C18.5028 4.55303 19.1471 5.50761 19.5864 6.56009C20.0257 7.61257 20.2513 8.74193 20.25 9.88242C20.25 12.4204 19.155 14.7019 17.4105 16.2784C17.2046 16.4603 16.9367 16.556 16.6622 16.5457C16.3876 16.5353 16.1276 16.4198 15.936 16.2229C15.444 15.7309 15.5355 14.9569 15.9975 14.5219C16.6308 13.9266 17.1352 13.2077 17.4797 12.4097C17.8241 11.6117 18.0012 10.7516 18 9.88242C18 8.15742 17.3145 6.59142 16.2 5.44242C15.771 5.00142 15.7005 4.25292 16.179 3.77592Z" fill="#FF7D7D"/>
<path d="M18.8205 1.13293C18.9206 1.03075 19.0399 0.949307 19.1716 0.893252C19.3032 0.837197 19.4446 0.807627 19.5876 0.806234C19.7307 0.804841 19.8726 0.831652 20.0053 0.885133C20.138 0.938615 20.2589 1.01772 20.361 1.11793C21.5161 2.2663 22.4323 3.63201 23.0569 5.13629C23.6815 6.64057 24.002 8.25364 24 9.88242C24.0019 11.5737 23.6561 13.2473 22.9842 14.7994C22.3123 16.3515 21.3285 17.7489 20.094 18.9049C19.8862 19.097 19.6118 19.2005 19.3289 19.1935C19.046 19.1865 18.777 19.0695 18.579 18.8674C18.105 18.3934 18.1635 17.6389 18.621 17.2024C19.6115 16.2581 20.3996 15.1222 20.9375 13.8639C21.4754 12.6055 21.7518 11.2509 21.75 9.88242C21.75 7.11342 20.6385 4.60243 18.8355 2.77543C18.4005 2.33293 18.3555 1.59793 18.8205 1.13293Z" fill="#FF7D7D"/>
<path d="M12 7.63245C11.4033 7.63245 10.831 7.8695 10.409 8.29146C9.98705 8.71341 9.75 9.28571 9.75 9.88244C9.75 10.4792 9.98705 11.0515 10.409 11.4734C10.831 11.8954 11.4033 12.1324 12 12.1324C12.5967 12.1324 13.169 11.8954 13.591 11.4734C14.0129 11.0515 14.25 10.4792 14.25 9.88244C14.25 9.28571 14.0129 8.71341 13.591 8.29146C13.169 7.8695 12.5967 7.63245 12 7.63245Z" fill="#FF7D7D"/>
</svg>
