<svg width="10" height="17" viewBox="0 0 10 17" fill="none" xmlns="http://www.w3.org/2000/svg">
<path d="M4.99025 0.5C7.32818 0.5 9.23052 2.41917 9.23052 4.77804V8.76987C9.7176 9.54804 10 10.469 10 11.4555C10 14.2368 7.75673 16.5 4.99996 16.5C2.24306 16.5 0 14.2368 0 11.4555C0 10.4822 0.274926 9.57254 0.75011 8.80092V4.778C0.750069 2.41917 2.65229 0.5 4.99025 0.5ZM4.99025 2.21321C3.5887 2.21321 2.44823 3.36375 2.44823 4.77804V7.11896C3.19574 6.66954 4.06838 6.41092 4.99988 6.41092C5.92344 6.41092 6.78915 6.66521 7.5324 7.10754V4.77804C7.5324 3.36375 6.39185 2.21321 4.99025 2.21321ZM4.99996 8.12421C3.17934 8.12421 1.69825 9.61858 1.69825 11.4555C1.69825 13.2923 3.17939 14.7869 4.99996 14.7869C6.82057 14.7869 8.30192 13.2923 8.30192 11.4555C8.30192 9.61858 6.82057 8.12425 4.99996 8.12425V8.12421ZM4.98365 10.057C5.75734 10.057 6.38458 10.6899 6.38458 11.4708C6.38458 12.2512 5.75734 12.884 4.98365 12.884C4.20987 12.884 3.58271 12.2513 3.58271 11.4708C3.58271 10.6899 4.20987 10.057 4.98365 10.057Z" fill="#FF7D7D"/>
</svg>
