<svg width="21" height="21" viewBox="0 0 21 21" fill="none" xmlns="http://www.w3.org/2000/svg">
<path d="M13.8408 10.5L20.3081 4.03272C21.2306 3.11017 21.2306 1.61446 20.3081 0.69191C19.3855 -0.230637 17.8899 -0.230637 16.9673 0.69191L10.5 7.15919L4.03272 0.69191C3.11017 -0.230637 1.61446 -0.230637 0.69191 0.69191C-0.230637 1.61446 -0.230637 3.11017 0.69191 4.03272L7.15919 10.5L0.69191 16.9673C-0.230637 17.8898 -0.230637 19.3855 0.69191 20.3081C1.15318 20.7693 1.75774 21 2.36229 21C2.96685 21 3.57145 20.7694 4.03267 20.3081L10.5 13.8408L16.9673 20.3081C17.4286 20.7693 18.0331 21 18.6377 21C19.2422 21 19.8468 20.7694 20.308 20.3081C21.2306 19.3855 21.2306 17.8898 20.308 16.9673L13.8408 10.5Z" fill="#352E1F"/>
</svg>
