<svg width="30" height="30" viewBox="0 0 30 30" fill="none" xmlns="http://www.w3.org/2000/svg">
<path fill-rule="evenodd" clip-rule="evenodd" d="M15 30C23.2843 30 30 23.2843 30 15C30 6.71573 23.2843 0 15 0C6.71573 0 2.42513e-06 6.71573 0 15C0 23.2843 6.71573 30 15 30ZM8.59479 7.9792H21.4052C21.616 7.9792 21.8181 8.06293 21.9672 8.21199C22.1162 8.36104 22.2 8.5632 22.2 8.774V21.5844C22.2 21.7952 22.1163 21.9973 21.9673 22.1463C21.8183 22.2954 21.6161 22.3791 21.4054 22.3792H17.7358V16.803H19.6076L19.8878 14.6298H17.7358V13.2422C17.7358 12.613 17.9104 12.1842 18.8128 12.1842L19.9636 12.1836V10.2398C19.7644 10.2132 19.0814 10.1542 18.2866 10.1542C16.6274 10.1542 15.4914 11.1668 15.4914 13.0268V14.6296H13.6148V16.8028H15.4914V22.3792H8.59479C8.38403 22.3792 8.1819 22.2955 8.03285 22.1465C7.8838 21.9975 7.80004 21.7954 7.79999 21.5846V8.774C7.79999 8.5632 7.88372 8.36104 8.03278 8.21199C8.18183 8.06293 8.38399 7.9792 8.59479 7.9792Z" fill="white"/>
</svg>
