<svg width="29" height="31" viewBox="0 0 29 31" fill="none" xmlns="http://www.w3.org/2000/svg">
<path d="M8.09259 26.6778C9.03821 26.9962 9.8608 26.0718 9.57754 25.1049C9.41671 24.5558 8.98624 24.1366 8.45425 23.9414C5.61691 22.9005 3.93649 21.0147 2.95376 17.1544C1.65133 12.0383 3.10442 7.03813 5.88743 4.2082C6.48725 3.59826 7.36833 3.36856 8.1847 3.60928C11.9725 4.72618 15.3807 8.53383 16.6831 13.6499C17.8479 18.2253 17.0384 22.708 14.8637 25.6286C14.415 24.7828 13.8419 23.6867 13.6029 22.7807C12.8942 20.0951 12.9463 18.2232 12.969 17.4048C12.9836 16.8818 12.9862 16.789 12.7706 17.1889C12.2177 18.2147 10.4504 17.7776 10.1897 17.5812C9.8341 17.3134 9.64721 17.1338 9.54081 17.0315C9.40925 16.9051 9.40075 16.8969 9.34857 16.9864C9.31212 17.0489 9.57516 17.6823 9.93968 18.5601C10.5194 19.9562 11.3559 21.9704 11.6526 23.2892C11.931 24.5268 12.0142 25.8003 12.0815 26.83C12.1311 27.5875 12.172 28.2131 12.2756 28.5955C12.5278 29.5263 12.8144 29.9078 13.3767 30.0617C13.6908 30.1477 13.978 30.131 14.2004 30.0345C14.5372 29.8884 14.8515 29.6765 15.1087 29.4259C19.4111 25.7957 21.2566 19.4334 19.593 12.8984C17.9029 6.25978 12.8957 1.51354 7.28167 0.538069C6.54731 0.41047 5.7937 0.606943 5.21167 1.07773C0.762171 4.67682 -1.0685 11.2806 0.621521 17.9192C1.87623 22.8478 4.53889 25.4811 8.09259 26.6778Z" fill="#352E1F"/>
<path fill-rule="evenodd" clip-rule="evenodd" d="M11.1514 11.9095C11.5809 12.0557 11.9823 12.1924 12.1902 12.304C12.4096 12.4218 12.4668 12.5233 12.4668 12.5233C12.4668 12.5233 12.5963 12.6528 12.7041 13.0058C12.8298 13.4175 12.9003 13.7518 12.9678 14.218C13.0503 14.7891 13.0044 15.2094 12.9426 15.5847C12.7453 16.7832 12.2589 17.2539 11.5587 17.2539C9.82197 17.2539 9.0299 16.1632 8.61677 13.0505C8.41954 11.5646 8.10681 10.3393 7.76072 9.6962C7.49431 9.20132 7.34102 9.04245 6.94748 8.85343C6.55395 8.66444 6.50474 8.4044 6.90958 8.39531C7.43096 8.3836 7.99436 8.8927 8.72875 10.0392C9.04168 10.5278 9.42309 11.0627 9.57629 11.2277C9.77388 11.4405 10.4954 11.6861 11.1514 11.9095ZM12.3573 16.4737C12.4621 16.3951 12.6474 15.748 12.7041 15.2307C12.8426 13.967 11.9621 10.7608 12.1384 14.3113C12.1466 14.4746 12.154 14.626 12.1609 14.7665C12.2447 16.4664 12.2491 16.555 12.3573 16.4737Z" fill="#352E1F"/>
<path fill-rule="evenodd" clip-rule="evenodd" d="M23.4707 8.6452C22.5618 8.66636 21.6336 8.84954 20.7178 9.18091C20.0093 9.43726 19.1938 9.14161 18.8521 8.46323C18.8088 8.37719 18.7648 8.29143 18.7201 8.20593C18.5185 7.82035 18.6633 7.33464 19.0621 7.16898C20.9621 6.37966 22.9748 6.04585 24.9367 6.22613C25.5934 6.28647 26.1933 6.62851 26.5845 7.16562C29.5754 11.2718 29.8939 17.4103 26.949 22.6997C24.4377 27.2105 18.8333 30.4678 15.8721 30.5C15.7209 30.5016 15.6496 30.3249 15.7485 30.2092C16.1602 29.7281 17.0145 28.713 17.5935 27.9108C17.8071 27.6149 18.0969 27.3833 18.4298 27.2394C20.8217 26.2058 23.0824 24.1668 24.6369 21.3745C26.9064 17.2982 27.0393 12.7513 25.2995 9.68784C24.9245 9.02758 24.2231 8.62769 23.4707 8.6452Z" fill="#352E1F"/>
<path d="M21.3032 18.854C21.265 18.956 21.1096 18.92 21.1188 18.8113C21.1728 18.1775 21.2408 17.2528 21.2408 16.6206C21.2408 16.2205 21.227 15.8236 21.1999 15.4304C21.176 15.0839 21.2188 14.7352 21.3406 14.4105L22.813 10.4834C22.9621 10.0855 23.4018 9.88535 23.7949 10.0363C24.1881 10.1873 24.3858 10.6321 24.2367 11.03L21.3032 18.854Z" fill="#352E1F"/>
</svg>
