<svg width="25" height="17" viewBox="0 0 25 17" fill="none" xmlns="http://www.w3.org/2000/svg">
<path d="M1.575 1.60001H23.425C23.5775 1.60001 23.7238 1.66059 23.8316 1.76842C23.9394 1.87625 24 2.02251 24 2.17501V14.825C24 14.9775 23.9394 15.1238 23.8316 15.2316C23.7238 15.3394 23.5775 15.4 23.425 15.4H15.95L12.5046 11.9506L9.05 15.4H1.575C1.4225 15.4 1.27625 15.3394 1.16841 15.2316C1.06058 15.1238 1 14.9775 1 14.825V2.17501C1 2.02251 1.06058 1.87625 1.16841 1.76842C1.27625 1.66059 1.4225 1.60001 1.575 1.60001Z" stroke="white" stroke-width="2" stroke-linejoin="round"/>
<path d="M6.75 10.8C7.36 10.8 7.94501 10.5577 8.37634 10.1263C8.80768 9.69501 9.05 9.10999 9.05 8.5C9.05 7.89 8.80768 7.30499 8.37634 6.87365C7.94501 6.44232 7.36 6.2 6.75 6.2C6.14 6.2 5.55499 6.44232 5.12365 6.87365C4.69232 7.30499 4.45 7.89 4.45 8.5C4.45 9.10999 4.69232 9.69501 5.12365 10.1263C5.55499 10.5577 6.14 10.8 6.75 10.8V10.8Z" stroke="white" stroke-width="2" stroke-linecap="round" stroke-linejoin="round"/>
<path d="M18.25 10.8C18.86 10.8 19.445 10.5577 19.8763 10.1263C20.3077 9.69501 20.55 9.10999 20.55 8.5C20.55 7.89 20.3077 7.30499 19.8763 6.87365C19.445 6.44232 18.86 6.2 18.25 6.2C17.64 6.2 17.055 6.44232 16.6237 6.87365C16.1923 7.30499 15.95 7.89 15.95 8.5C15.95 9.10999 16.1923 9.69501 16.6237 10.1263C17.055 10.5577 17.64 10.8 18.25 10.8V10.8Z" stroke="white" stroke-width="2" stroke-linecap="round" stroke-linejoin="round"/>
</svg>
