<svg width="30" height="30" viewBox="0 0 30 30" fill="none" xmlns="http://www.w3.org/2000/svg">
<path fill-rule="evenodd" clip-rule="evenodd" d="M15 30C23.2843 30 30 23.2843 30 15C30 6.71573 23.2843 0 15 0C6.71573 0 2.42513e-06 6.71573 0 15C0 23.2843 6.71573 30 15 30ZM12.6638 15C12.6638 13.7146 13.7128 12.6657 14.9981 12.6657C16.2835 12.6657 17.3324 13.7146 17.3324 15C17.3324 16.2854 16.2835 17.3343 14.9981 17.3343C13.7128 17.3343 12.6638 16.2854 12.6638 15ZM21.9995 14.6464C21.9993 14.7641 21.9992 14.882 21.9992 15C21.9992 15.1319 21.9994 15.2637 21.9996 15.3954C22.0008 16.2283 22.0021 17.0563 21.9537 17.8895C21.8994 19.0102 21.6455 20.0031 20.8242 20.8244C20.0047 21.644 19.01 21.8997 17.8893 21.9539C17.0421 22.0016 16.2004 22.0007 15.3534 21.9997C15.2357 21.9996 15.1178 21.9995 14.9999 21.9995C14.8821 21.9995 14.7645 21.9996 14.647 21.9997C13.8011 22.0007 12.9592 22.0016 12.1105 21.9539C10.9897 21.8997 9.99683 21.6457 9.17554 20.8244C8.356 20.0049 8.10034 19.0102 8.04605 17.8895C7.99839 17.0423 7.99932 16.1992 8.00026 15.353C8.00039 15.2354 8.00052 15.1177 8.00052 15C8.00052 14.8823 8.00039 14.7646 8.00026 14.647C7.99932 13.8012 7.99839 12.9592 8.04605 12.1105C8.10034 10.9898 8.35425 9.99687 9.17554 9.17556C9.99508 8.35601 10.9897 8.10034 12.1105 8.04605C12.9576 7.99839 13.7993 7.99932 14.6463 8.00026C14.764 8.00039 14.8819 8.00052 14.9999 8.00052C15.1176 8.00052 15.2352 8.00039 15.3528 8.00026C16.1987 7.99932 17.0406 7.99839 17.8893 8.04605C19.01 8.10034 20.0029 8.35426 20.8242 9.17556C21.6437 9.99512 21.8994 10.9898 21.9537 12.1105C22.0013 12.9577 22.0004 13.7994 21.9995 14.6464ZM11.4065 15C11.4065 16.9876 13.0106 18.5917 14.9981 18.5917C16.9857 18.5917 18.5897 16.9876 18.5897 15C18.5897 13.0124 16.9857 11.4083 14.9981 11.4083C13.0106 11.4083 11.4065 13.0124 11.4065 15ZM17.898 11.2612C17.898 11.7253 18.2728 12.1 18.7368 12.1C18.847 12.1002 18.9562 12.0786 19.058 12.0365C19.1598 11.9944 19.2523 11.9326 19.3303 11.8547C19.4082 11.7767 19.47 11.6842 19.5121 11.5824C19.5542 11.4806 19.5758 11.3714 19.5756 11.2612C19.5756 10.7972 19.2009 10.4224 18.7368 10.4224C18.2728 10.4224 17.898 10.7972 17.898 11.2612Z" fill="white"/>
</svg>
