<svg width="14" height="15" viewBox="0 0 14 15" fill="none" xmlns="http://www.w3.org/2000/svg">
<path d="M0 7.27253V7.25272C0.175732 4.95577 0.995816 3.23306 2.4212 2.14399C3.82706 1.03511 5.35007 0.500479 7.00976 0.500479C8.74756 0.480678 10.3682 1.07472 11.8131 2.2628C13.2775 3.43107 14 5.17359 14 7.43094V7.56954C14 9.84669 13.2775 11.5496 11.8131 12.7179C10.3487 13.906 8.72803 14.5 6.99024 14.5H6.91213C5.21339 14.4802 3.65132 13.8862 2.20642 12.6981C0.761506 11.5298 0.0195258 9.72789 0 7.27253ZM6.5802 4.16372V1.03511H6.11158C6.01395 1.15392 5.93584 1.29253 5.85774 1.41134C5.77964 1.53015 5.70153 1.64895 5.62343 1.78756C5.54533 1.90637 5.4477 2.06478 5.38912 2.18359C5.31102 2.3024 5.25244 2.42121 5.19386 2.55981C5.07671 2.75783 4.97908 2.95584 4.90098 3.13405C4.80335 3.31226 4.72524 3.49048 4.66667 3.64889C4.78382 3.72809 4.9205 3.8271 5.07671 3.8865C5.25244 3.94591 5.42817 4.00531 5.60391 4.04491C5.79916 4.08452 5.9749 4.10432 6.1311 4.12412C6.30683 4.14392 6.46304 4.16372 6.5802 4.16372ZM7.40028 1.03511V4.14392C7.49791 4.14392 7.61506 4.16372 7.73222 4.14392C7.84937 4.14392 7.98605 4.12412 8.10321 4.10432C8.31799 4.06471 8.57183 4.00531 8.76709 3.94591C8.98187 3.8667 9.17713 3.76769 9.31381 3.64889C9.0795 3.07465 8.82566 2.61922 8.57183 2.18359C8.31799 1.74796 8.0251 1.37174 7.71269 1.05492V1.03511H7.40028ZM5.29149 1.21333V1.19352C5.15481 1.25293 5.01813 1.35194 4.86192 1.41134C4.72524 1.47074 4.54951 1.54995 4.41283 1.62915C4.13947 1.76776 3.86611 1.92617 3.59275 2.10438C3.33891 2.2826 3.08508 2.48061 2.87029 2.67862C2.9484 2.75783 3.04603 2.83703 3.12413 2.89644C3.20223 2.95584 3.29986 3.03505 3.39749 3.11425C3.47559 3.15385 3.57322 3.21326 3.67085 3.29246C3.76848 3.35187 3.88563 3.43107 4.00279 3.51028C4.159 3.15385 4.3152 2.77763 4.51046 2.44101C4.70572 2.08458 4.9205 1.74796 5.13529 1.45094C5.15481 1.41134 5.17434 1.37174 5.21339 1.33213C5.23291 1.31233 5.25244 1.25293 5.29149 1.21333ZM11.2664 2.67862V2.65882C10.7782 2.2826 10.3487 1.96578 9.91911 1.76776C9.48954 1.56975 9.05997 1.37174 8.66946 1.21333C8.98187 1.53015 9.25523 1.92617 9.43096 2.3024C9.62622 2.69842 9.82148 3.11425 9.97768 3.51028C10.0558 3.47067 10.1534 3.43107 10.2706 3.35187C10.3682 3.29246 10.5049 3.23306 10.622 3.17366C10.7392 3.09445 10.8368 3.01524 10.954 2.93604C11.0711 2.83703 11.1883 2.75783 11.2664 2.67862ZM10.9344 7.09431H13.1799C13.1799 6.36167 13.0237 5.66862 12.7308 4.95577C12.4575 4.26273 12.0669 3.68849 11.5788 3.19346V3.17366C11.4812 3.33207 11.3445 3.47067 11.2078 3.56968C11.0516 3.66869 10.9149 3.74789 10.7587 3.8271C10.6611 3.8865 10.5635 3.96571 10.4658 4.00531C10.3682 4.06471 10.2315 4.10432 10.1339 4.16372C10.212 4.32213 10.2901 4.50034 10.3682 4.65875C10.4268 4.83696 10.5244 5.03498 10.5635 5.21319C10.6806 5.53001 10.7587 5.86663 10.8368 6.20325C10.8954 6.50027 10.9344 6.8171 10.9344 7.09431ZM3.86611 4.16372V4.14392C3.7099 4.06471 3.53417 4.00531 3.39749 3.9261C3.26081 3.8271 3.12413 3.72809 3.00697 3.64889C2.88982 3.58948 2.77266 3.51028 2.67503 3.43107C2.57741 3.35187 2.4993 3.27266 2.4212 3.19346C1.91353 3.68849 1.54254 4.24293 1.30823 4.89637C1.05439 5.54981 0.878661 6.28246 0.800558 7.07451H3.20223C3.20223 6.52008 3.28033 5.98544 3.41702 5.45081C3.53417 4.89637 3.7099 4.48054 3.86611 4.16372ZM6.5802 7.07451V4.79736C6.42399 4.81716 6.22873 4.81716 6.053 4.79736C5.85774 4.77756 5.66248 4.71816 5.48675 4.65875C5.33054 4.61915 5.13529 4.57955 4.97908 4.52014C4.80335 4.48054 4.62761 4.40134 4.49093 4.32213C4.37378 4.52014 4.27615 4.75776 4.19805 5.01518C4.10042 5.25279 4.04184 5.51021 3.98326 5.74782C3.94421 5.98544 3.92469 6.24286 3.90516 6.46067C3.88563 6.67849 3.86611 6.8963 3.86611 7.07451H6.5802ZM7.40028 4.83696V7.07451H10.2901C10.2901 6.9557 10.2901 6.8171 10.2706 6.65868C10.2315 6.52008 10.212 6.34186 10.1925 6.18345C10.1339 5.94584 10.0753 5.68842 9.99721 5.45081C9.91911 5.23299 9.841 5.01518 9.74337 4.83696C9.70432 4.73796 9.66527 4.61915 9.62622 4.53995C9.56764 4.44094 9.50907 4.38153 9.47001 4.32213C9.25523 4.48054 8.96234 4.57955 8.61088 4.65875C8.27894 4.73796 7.88842 4.81716 7.53696 4.83696H7.40028ZM3.20223 7.72795H0.800558C0.800558 8.06458 0.859135 8.4408 0.956764 8.89623C1.05439 9.37146 1.24965 9.80709 1.46444 10.2823C1.56206 10.5199 1.67922 10.7576 1.79637 10.9952C1.93305 11.213 2.08926 11.4506 2.24547 11.6684C2.36262 11.5892 2.47978 11.5298 2.57741 11.4704C2.69456 11.411 2.83124 11.3318 2.9484 11.2724C3.08508 11.213 3.22176 11.1536 3.37796 11.0744C3.51464 11.015 3.69038 10.9358 3.86611 10.8566C3.7099 10.3615 3.53417 9.8863 3.41702 9.35166C3.28033 8.83683 3.20223 8.32199 3.20223 7.74776V7.72795ZM6.5802 10.0447V7.72795H3.86611C3.86611 7.88637 3.88563 8.12398 3.92469 8.3616C3.94421 8.59921 4.00279 8.85663 4.04184 9.11405C4.11994 9.39126 4.17852 9.66848 4.25662 9.9061C4.33473 10.1437 4.41283 10.3417 4.49093 10.5199C4.8424 10.3813 5.19386 10.2823 5.42817 10.2229C5.68201 10.1437 5.91632 10.0843 6.15063 10.0645H6.36541C6.44351 10.0447 6.52162 10.0447 6.5802 10.0447ZM7.40028 7.72795V10.0249C7.53696 10.0447 7.69317 10.0645 7.84937 10.0843C8.0251 10.1041 8.23989 10.1437 8.41562 10.1833L8.70851 10.2427C8.80614 10.2823 8.92329 10.3021 9.02092 10.3219C9.13807 10.3615 9.25523 10.3813 9.37239 10.4209C9.47001 10.4605 9.56764 10.4803 9.64575 10.5199C9.89958 9.8665 10.0558 9.33186 10.1534 8.87643C10.251 8.4408 10.2901 8.06458 10.2901 7.74776V7.72795H7.40028ZM13.1799 7.74776V7.72795H10.9344V7.84676C10.9149 8.22299 10.8563 8.65862 10.7782 9.11405C10.7001 9.54967 10.5244 10.0645 10.2901 10.6981C10.6025 10.8566 10.8954 11.015 11.1297 11.1734C11.364 11.3318 11.5788 11.51 11.735 11.6684C12.0669 11.3318 12.3598 10.8764 12.6137 10.2823C12.8675 9.70809 13.0432 9.11405 13.1409 8.4804C13.1604 8.3616 13.1604 8.24279 13.1799 8.12398V7.74776ZM6.5802 13.7674V10.6783C6.09205 10.7576 5.68201 10.8566 5.3696 10.9358C5.05718 11.015 4.82287 11.0942 4.66667 11.1734C4.78382 11.4704 4.90098 11.7278 5.01813 11.9654C5.13529 12.1832 5.27197 12.4209 5.38912 12.6189C5.42817 12.6981 5.50628 12.7773 5.56485 12.8763C5.62343 12.9555 5.66248 13.0545 5.72106 13.1337C5.77964 13.2327 5.83821 13.3515 5.89679 13.4703C5.9749 13.5693 6.03347 13.6881 6.11158 13.7674H6.5802ZM7.40028 13.7674H7.84937C8.0251 13.6287 8.20084 13.4307 8.33752 13.2129C8.49372 12.9951 8.66946 12.7377 8.78661 12.5199C8.92329 12.2625 9.05997 12.0248 9.17713 11.7872C9.29428 11.5496 9.39191 11.3318 9.47001 11.1734C9.25523 11.0942 8.96234 11.015 8.66946 10.9358C8.37657 10.8566 7.96653 10.7774 7.40028 10.6981V13.7674ZM11.2664 12.1436V12.1238C11.2273 12.0644 11.1492 11.9852 11.0907 11.9258C11.0321 11.8664 10.9344 11.7872 10.8368 11.7278C10.7587 11.6684 10.6611 11.609 10.5439 11.5496C10.4268 11.4902 10.2706 11.411 10.1339 11.3318C10.0558 11.4902 9.91911 11.7674 9.72385 12.1436C9.54812 12.5199 9.2357 12.9753 8.84519 13.4703C9.33333 13.3911 9.7629 13.2129 10.1534 12.9753C10.583 12.7575 10.954 12.4605 11.2664 12.1436ZM4.00279 11.51V11.4902C3.86611 11.5694 3.65132 11.6684 3.43654 11.7674C3.20223 11.8664 2.9484 11.9852 2.71409 12.1436C2.85077 12.2625 2.98745 12.3813 3.1046 12.4605C3.22176 12.5595 3.35844 12.6387 3.47559 12.7179C3.69038 12.8565 3.94421 12.9951 4.19805 13.1139C4.45188 13.2327 4.7643 13.3515 5.15481 13.4703C5.01813 13.3119 4.9205 13.1139 4.82287 12.9555C4.72524 12.7971 4.60809 12.6387 4.51046 12.4803C4.41283 12.3219 4.33473 12.1436 4.25662 11.9852C4.159 11.8268 4.08089 11.6684 4.00279 11.51Z" fill="#352E1F"/>
</svg>
