<svg width="319" height="36" viewBox="0 0 319 36" fill="none" xmlns="http://www.w3.org/2000/svg">
<path d="M23.336 35H0.536V31.112L2.12 30.968C3.048 30.872 3.512 30.424 3.512 29.624V7.304L0.776 7.16V3.08H12.344V6.968L10.76 7.112C9.832 7.208 9.368 7.72 9.368 8.648V30.056H17.336C17.784 30.056 18.072 29.944 18.2 29.72C18.36 29.464 18.44 29.064 18.44 28.52V25.16L23.336 25.496V35ZM47.9173 11.816V29.672C47.9173 30.184 47.9973 30.536 48.1573 30.728C48.3493 30.92 48.6693 31.032 49.1173 31.064L50.6533 31.16V35H43.0213V32.216L42.8773 32.168C41.2773 34.472 39.0853 35.624 36.3013 35.624C33.0373 35.624 30.6213 34.584 29.0533 32.504C27.4853 30.424 26.7013 27.576 26.7013 23.96C26.7013 19.608 27.7573 16.216 29.8693 13.784C31.9813 11.352 35.1493 10.136 39.3733 10.136C42.0933 10.136 44.9413 10.696 47.9173 11.816ZM42.3493 27.368V14.936C41.4533 14.52 40.2213 14.312 38.6533 14.312C36.5093 14.312 34.9573 15.176 33.9973 16.904C33.0373 18.632 32.5573 20.92 32.5573 23.768C32.5573 28.952 34.2213 31.544 37.5493 31.544C38.9573 31.544 40.1093 31.128 41.0053 30.296C41.9013 29.432 42.3493 28.456 42.3493 27.368ZM69.4876 11.816H74.1436L79.1356 29.672H79.2316L82.4956 14.84L80.0476 14.696V10.856H89.6956V14.552L88.1116 14.648C87.4716 14.712 87.0396 15.096 86.8156 15.8L82.2556 35H75.3436L71.4076 20.696H71.2636L67.1836 35H60.1276L55.2796 15.848C55.1196 15.4 54.9436 15.096 54.7516 14.936C54.5916 14.776 54.3036 14.68 53.8876 14.648L52.4956 14.552V10.856H63.4876V14.696L60.7996 14.84L64.1116 29.576H64.2076L69.4876 11.816ZM113.308 11.816V29.672C113.308 30.184 113.388 30.536 113.548 30.728C113.74 30.92 114.06 31.032 114.508 31.064L116.044 31.16V35H108.412V32.216L108.268 32.168C106.668 34.472 104.476 35.624 101.692 35.624C98.4279 35.624 96.0119 34.584 94.4439 32.504C92.8759 30.424 92.0919 27.576 92.0919 23.96C92.0919 19.608 93.1479 16.216 95.2599 13.784C97.3719 11.352 100.54 10.136 104.764 10.136C107.484 10.136 110.332 10.696 113.308 11.816ZM107.74 27.368V14.936C106.844 14.52 105.612 14.312 104.044 14.312C101.9 14.312 100.348 15.176 99.3879 16.904C98.4279 18.632 97.9479 20.92 97.9479 23.768C97.9479 28.952 99.6119 31.544 102.94 31.544C104.348 31.544 105.5 31.128 106.396 30.296C107.292 29.432 107.74 28.456 107.74 27.368ZM131.566 14.504C130.798 14.216 129.87 14.072 128.782 14.072C127.694 14.072 126.814 14.328 126.142 14.84C125.502 15.32 125.182 15.928 125.182 16.664C125.182 17.368 125.294 17.928 125.518 18.344C125.774 18.728 126.158 19.064 126.67 19.352C127.47 19.768 128.43 20.136 129.55 20.456C130.67 20.744 131.502 20.984 132.046 21.176C132.59 21.336 133.262 21.624 134.062 22.04C134.894 22.456 135.518 22.904 135.934 23.384C137.054 24.568 137.614 26.088 137.614 27.944C137.614 30.344 136.734 32.232 134.974 33.608C133.246 34.952 131.038 35.624 128.35 35.624C124.446 35.624 121.502 35.128 119.518 34.136V27.464L123.838 27.128V29.432C123.838 30.84 125.182 31.544 127.87 31.544C130.558 31.544 131.902 30.568 131.902 28.616C131.902 27.912 131.662 27.336 131.182 26.888C130.734 26.44 130.286 26.136 129.838 25.976C129.39 25.816 128.846 25.656 128.206 25.496C127.598 25.336 126.99 25.176 126.382 25.016C125.806 24.856 125.166 24.648 124.462 24.392C123.79 24.104 123.038 23.704 122.206 23.192C120.574 22.136 119.758 20.376 119.758 17.912C119.758 15.416 120.638 13.496 122.398 12.152C124.158 10.808 126.366 10.136 129.022 10.136C131.71 10.136 134.366 10.776 136.99 12.056V17.816L132.67 18.152V16.136C132.67 15.336 132.302 14.792 131.566 14.504ZM162.199 11.816V29.672C162.199 30.184 162.279 30.536 162.439 30.728C162.631 30.92 162.951 31.032 163.399 31.064L164.935 31.16V35H157.303V32.216L157.159 32.168C155.559 34.472 153.367 35.624 150.583 35.624C147.319 35.624 144.903 34.584 143.335 32.504C141.767 30.424 140.983 27.576 140.983 23.96C140.983 19.608 142.039 16.216 144.151 13.784C146.263 11.352 149.431 10.136 153.655 10.136C156.375 10.136 159.223 10.696 162.199 11.816ZM156.631 27.368V14.936C155.735 14.52 154.503 14.312 152.935 14.312C150.791 14.312 149.239 15.176 148.279 16.904C147.319 18.632 146.839 20.92 146.839 23.768C146.839 28.952 148.503 31.544 151.831 31.544C153.239 31.544 154.391 31.128 155.287 30.296C156.183 29.432 156.631 28.456 156.631 27.368ZM167.593 14.696V10.856H175.705V13.976C176.537 12.792 177.641 11.864 179.017 11.192C180.393 10.488 181.881 10.136 183.481 10.136C185.913 10.136 187.785 10.84 189.097 12.248C190.441 13.624 191.113 15.704 191.113 18.488V31.016L193.849 31.16V35H182.425V31.352L184.009 31.208C184.489 31.144 184.841 31.016 185.065 30.824C185.289 30.6 185.401 30.2 185.401 29.624V19.736C185.401 17.976 185.129 16.68 184.585 15.848C184.041 14.984 183.001 14.552 181.465 14.552C179.961 14.552 178.761 15.032 177.865 15.992C176.969 16.952 176.521 18.088 176.521 19.4V31.016L179.257 31.16V35H167.833V31.352L169.417 31.208C169.897 31.144 170.249 31.016 170.473 30.824C170.697 30.6 170.809 30.2 170.809 29.624V16.328C170.809 15.368 170.409 14.872 169.609 14.84L167.593 14.696ZM206.56 3.08H220.096C227.008 3.08 230.464 5.752 230.464 11.096C230.464 14.04 228.992 16.28 226.048 17.816C227.936 18.296 229.408 19.176 230.464 20.456C231.552 21.736 232.096 23.4 232.096 25.448C232.096 28.552 231.04 30.92 228.927 32.552C226.848 34.184 223.808 35 219.808 35H206.32V31.112L207.904 30.968C208.832 30.872 209.296 30.424 209.296 29.624V7.304L206.56 7.16V3.08ZM215.152 20.456V30.488H219.664C223.824 30.488 225.904 28.792 225.904 25.4C225.904 23.8 225.376 22.584 224.32 21.752C223.296 20.888 221.824 20.456 219.904 20.456H215.152ZM215.152 7.496V16.184H218.704C220.688 16.184 222.144 15.784 223.072 14.984C224.032 14.152 224.512 13 224.512 11.528C224.512 10.056 224.032 9.016 223.072 8.408C222.144 7.8 220.8 7.496 219.04 7.496H215.152ZM256.699 11.816V29.672C256.699 30.184 256.779 30.536 256.939 30.728C257.131 30.92 257.451 31.032 257.899 31.064L259.435 31.16V35H251.803V32.216L251.659 32.168C250.059 34.472 247.867 35.624 245.083 35.624C241.819 35.624 239.403 34.584 237.835 32.504C236.267 30.424 235.483 27.576 235.483 23.96C235.483 19.608 236.539 16.216 238.651 13.784C240.763 11.352 243.931 10.136 248.155 10.136C250.875 10.136 253.723 10.696 256.699 11.816ZM251.131 27.368V14.936C250.235 14.52 249.003 14.312 247.435 14.312C245.291 14.312 243.739 15.176 242.779 16.904C241.819 18.632 241.339 20.92 241.339 23.768C241.339 28.952 243.003 31.544 246.331 31.544C247.739 31.544 248.891 31.128 249.787 30.296C250.683 29.432 251.131 28.456 251.131 27.368ZM266.771 5.768H269.891V10.856H276.275L275.795 14.888H269.891V27.512C269.891 28.92 270.147 29.912 270.659 30.488C271.171 31.032 271.955 31.304 273.011 31.304C274.099 31.304 275.187 30.968 276.275 30.296L277.715 33.992C276.115 35.112 274.083 35.672 271.619 35.672C270.179 35.672 268.963 35.48 267.971 35.096C266.979 34.744 266.243 34.344 265.763 33.896C265.283 33.448 264.915 32.792 264.659 31.928C264.403 31.064 264.259 30.392 264.227 29.912C264.195 29.4 264.179 28.664 264.179 27.704V14.888H260.771L261.251 11.384C262.755 11.256 263.891 10.728 264.659 9.8C265.427 8.84 266.131 7.496 266.771 5.768ZM288.225 10.856V31.016L290.961 31.16V35H279.537V31.352L281.121 31.208C282.049 31.112 282.513 30.6 282.513 29.672V16.328C282.513 15.784 282.417 15.416 282.225 15.224C282.065 15.032 281.761 14.936 281.313 14.936L279.633 14.84V10.856H288.225ZM282.177 6.728C281.505 6.056 281.169 5.208 281.169 4.184C281.169 3.16 281.505 2.312 282.177 1.64C282.849 0.935999 283.729 0.584 284.817 0.584C285.905 0.584 286.785 0.935999 287.457 1.64C288.161 2.312 288.513 3.16 288.513 4.184C288.513 5.208 288.161 6.056 287.457 6.728C286.785 7.368 285.905 7.688 284.817 7.688C283.729 7.688 282.849 7.368 282.177 6.728ZM296.716 29.624V6.248C296.716 5.736 296.62 5.384 296.428 5.192C296.268 5 295.964 4.888 295.516 4.856L293.836 4.76V0.775997H302.38V21.56C304.14 21.4 305.676 20.856 306.988 19.928C308.3 19 309.196 17.784 309.676 16.28C309.772 15.96 309.82 15.704 309.82 15.512C309.82 14.968 309.516 14.696 308.908 14.696L307.084 14.6V10.856H317.02V14.744L314.716 14.84C314.3 18.104 312.892 20.68 310.492 22.568L315.196 31.016L318.124 31.16V35H311.116L305.644 25.016C304.588 25.304 303.5 25.528 302.38 25.688V31.016H302.428L305.164 31.16V35H293.74V31.352L295.324 31.208C295.804 31.144 296.156 31.016 296.38 30.824C296.604 30.6 296.716 30.2 296.716 29.624Z" fill="#352E1F"/>
</svg>
