<svg width="30" height="30" viewBox="0 0 30 30" fill="none" xmlns="http://www.w3.org/2000/svg">
<path fill-rule="evenodd" clip-rule="evenodd" d="M15 30C23.2843 30 30 23.2843 30 15C30 6.71573 23.2843 0 15 0C6.71573 0 2.42513e-06 6.71573 0 15C0 23.2843 6.71573 30 15 30ZM8.86299 7.97925H21.1334C21.7206 7.97925 22.2 8.44425 22.2 9.01685V21.3402C22.2 21.9136 21.7206 22.3792 21.1334 22.3792H8.86299C8.27619 22.3792 7.79999 21.9136 7.79999 21.3402V9.01685C7.79999 8.44425 8.27619 7.97925 8.86299 7.97925ZM9.93399 13.3782V20.25H12.0708V13.3782H9.93399ZM10.5284 12.3443C10.6787 12.4066 10.8397 12.4386 11.0024 12.4386C11.3308 12.4384 11.6456 12.3077 11.8777 12.0755C12.1098 11.8432 12.2402 11.5282 12.2402 11.1998C12.2402 10.8715 12.1098 10.5567 11.8776 10.3245C11.6455 10.0924 11.3306 9.96195 11.0023 9.96195C10.674 9.96195 10.3591 10.0924 10.127 10.3245C9.89481 10.5567 9.76439 10.8715 9.76439 11.1998C9.76428 11.3625 9.79623 11.5236 9.8584 11.6739C9.92056 11.8241 10.0117 11.9607 10.1267 12.0758C10.2417 12.1908 10.3782 12.2821 10.5284 12.3443ZM17.9366 20.25H20.07H20.0702V16.4806C20.0702 14.6296 19.671 13.2068 17.5098 13.2068C16.4706 13.2068 15.7738 13.7766 15.4886 14.3166H15.4594V13.3782H13.4104V20.2502H15.5454V16.8506C15.5454 15.9544 15.7148 15.0862 16.8264 15.0862C17.921 15.0862 17.9366 16.1112 17.9366 16.9084V20.25Z" fill="white"/>
</svg>
