<svg width="226" height="31" viewBox="0 0 226 31" fill="none" xmlns="http://www.w3.org/2000/svg">
<path d="M8.09259 26.6778C9.03821 26.9962 9.8608 26.0718 9.57754 25.1049C9.41671 24.5558 8.98624 24.1366 8.45425 23.9414C5.61691 22.9005 3.93649 21.0147 2.95376 17.1544C1.65133 12.0383 3.10442 7.03813 5.88743 4.2082C6.48725 3.59826 7.36833 3.36856 8.1847 3.60928C11.9725 4.72618 15.3807 8.53383 16.6831 13.6499C17.8479 18.2253 17.0384 22.708 14.8637 25.6286C14.415 24.7828 13.8419 23.6867 13.6029 22.7807C12.8942 20.0951 12.9463 18.2232 12.969 17.4048C12.9836 16.8818 12.9862 16.789 12.7706 17.1889C12.2177 18.2147 10.4504 17.7776 10.1897 17.5812C9.8341 17.3134 9.64721 17.1338 9.54081 17.0315C9.40925 16.9051 9.40075 16.8969 9.34857 16.9864C9.31212 17.0489 9.57516 17.6823 9.93968 18.5601C10.5194 19.9562 11.3559 21.9704 11.6526 23.2892C11.931 24.5268 12.0142 25.8003 12.0815 26.83C12.1311 27.5875 12.172 28.2131 12.2756 28.5955C12.5278 29.5263 12.8144 29.9078 13.3767 30.0617C13.6908 30.1477 13.978 30.131 14.2004 30.0345C14.5372 29.8884 14.8515 29.6765 15.1087 29.4259C19.4111 25.7957 21.2566 19.4334 19.593 12.8984C17.9029 6.25978 12.8957 1.51354 7.28167 0.538069C6.54731 0.41047 5.7937 0.606943 5.21167 1.07773C0.762171 4.67682 -1.0685 11.2806 0.621521 17.9192C1.87623 22.8478 4.53889 25.4811 8.09259 26.6778Z" fill="#352E1F"/>
<path fill-rule="evenodd" clip-rule="evenodd" d="M11.1514 11.9095C11.5809 12.0557 11.9823 12.1924 12.1902 12.304C12.4096 12.4218 12.4668 12.5233 12.4668 12.5233C12.4668 12.5233 12.5963 12.6528 12.7041 13.0058C12.8298 13.4175 12.9003 13.7518 12.9678 14.218C13.0503 14.7891 13.0044 15.2094 12.9426 15.5847C12.7453 16.7832 12.2589 17.2539 11.5587 17.2539C9.82197 17.2539 9.0299 16.1632 8.61677 13.0505C8.41954 11.5646 8.10681 10.3393 7.76072 9.6962C7.49431 9.20132 7.34102 9.04245 6.94748 8.85343C6.55395 8.66444 6.50474 8.4044 6.90958 8.39531C7.43096 8.3836 7.99436 8.8927 8.72875 10.0392C9.04168 10.5278 9.42309 11.0627 9.57629 11.2277C9.77388 11.4405 10.4954 11.6861 11.1514 11.9095ZM12.3573 16.4737C12.4621 16.3951 12.6474 15.748 12.7041 15.2307C12.8426 13.967 11.9621 10.7608 12.1384 14.3113C12.1466 14.4746 12.154 14.626 12.1609 14.7665C12.2447 16.4664 12.2491 16.555 12.3573 16.4737Z" fill="#352E1F"/>
<path fill-rule="evenodd" clip-rule="evenodd" d="M23.4707 8.6452C22.5618 8.66636 21.6336 8.84954 20.7178 9.18091C20.0093 9.43726 19.1938 9.14161 18.8521 8.46323C18.8088 8.37719 18.7648 8.29143 18.7201 8.20593C18.5185 7.82035 18.6633 7.33464 19.0621 7.16898C20.9621 6.37966 22.9748 6.04585 24.9367 6.22613C25.5934 6.28647 26.1933 6.62851 26.5845 7.16562C29.5754 11.2718 29.8939 17.4103 26.949 22.6997C24.4377 27.2105 18.8333 30.4678 15.8721 30.5C15.7209 30.5016 15.6496 30.3249 15.7485 30.2092C16.1602 29.7281 17.0145 28.713 17.5935 27.9108C17.8071 27.6149 18.0969 27.3833 18.4298 27.2394C20.8217 26.2058 23.0824 24.1668 24.6369 21.3745C26.9064 17.2982 27.0393 12.7513 25.2995 9.68784C24.9245 9.02758 24.2231 8.62769 23.4707 8.6452Z" fill="#352E1F"/>
<path d="M21.3032 18.854C21.265 18.956 21.1096 18.92 21.1188 18.8113C21.1728 18.1775 21.2408 17.2528 21.2408 16.6206C21.2408 16.2205 21.227 15.8236 21.1999 15.4304C21.176 15.0839 21.2188 14.7352 21.3406 14.4105L22.813 10.4834C22.9621 10.0855 23.4018 9.88535 23.7949 10.0363C24.1881 10.1873 24.3858 10.6321 24.2367 11.03L21.3032 18.854Z" fill="#352E1F"/>
<rect width="2" height="26" transform="matrix(-1 0 0 1 47 4.5)" fill="#352E1F"/>
<path d="M164.216 22.203C164.129 22.9241 163.965 23.6306 163.724 24.3226C163.397 25.2913 162.923 26.1909 162.304 27.0212C161.182 28.5144 159.737 29.556 157.967 30.146C156.153 30.685 154.365 30.6085 152.602 29.9165C150.796 29.1299 149.401 27.9171 148.417 26.2783C147.434 24.6321 146.932 22.8367 146.91 20.8919C146.91 20.382 146.946 19.8758 147.019 19.3732C147.303 17.4867 148.046 15.8114 149.248 14.3474C150.457 12.8833 152.005 11.9255 153.891 11.4739C155.741 11.0879 157.515 11.3137 159.212 12.1513C160.873 13.0254 162.155 14.2891 163.058 15.9425C163.102 16.0226 163.142 16.1028 163.178 16.1829C163.178 16.1829 160.144 17.1662 159.802 17.341C159.001 16.0882 158.123 15.0503 157.169 14.2272C156.222 13.4041 155.286 12.8542 154.361 12.5774C153.443 12.3006 152.62 12.3516 151.892 12.7304C151.848 12.7595 151.804 12.785 151.761 12.8068C151.04 13.2803 150.57 14.0342 150.351 15.0685C150.133 16.1028 150.162 17.2973 150.439 18.6521C150.723 20.0069 151.251 21.4017 152.023 22.8367C152.81 24.2352 153.691 25.4151 154.667 26.3766C155.65 27.3308 156.63 28.0009 157.606 28.3869C158.589 28.7657 159.474 28.7912 160.261 28.4634C160.53 28.2595 160.789 28.0373 161.037 27.7969C161.86 26.6752 162.096 25.0728 161.747 22.9896C161.696 22.7347 161.638 22.4725 161.572 22.203H164.216Z" fill="#352E1F"/>
<path d="M181.61 28.376C181.61 28.7256 181.675 29.0243 181.807 29.2719C181.945 29.5123 182.112 29.709 182.309 29.8619C182.513 30.0149 182.713 30.1314 182.91 30.2115C183.114 30.2917 183.285 30.3499 183.424 30.3863L183.631 30.43H179.742C179.399 30.4519 179.068 30.43 178.747 30.3645C178.288 30.2334 177.935 29.9894 177.688 29.6325C177.447 29.2683 177.327 28.8531 177.327 28.3869C177.32 28.0883 177.32 27.7897 177.327 27.491V13.1128C178.143 13.1856 178.929 13.0581 179.687 12.7304C180.452 12.4026 181.093 11.9219 181.61 11.2882V28.376Z" fill="#352E1F"/>
<path d="M213.087 30.4847H208.695C208.593 30.4847 208.494 30.4774 208.4 30.4628C207.504 30.2734 206.968 29.7272 206.794 28.824C206.786 28.7438 206.783 25.7975 206.783 19.985C208.305 19.213 209.733 18.2952 211.066 17.2318V28.4306C211.066 28.7875 211.135 29.0898 211.273 29.3375C211.412 29.5778 211.579 29.7745 211.776 29.9275C211.972 30.0804 212.169 30.197 212.366 30.2771C212.57 30.3572 212.741 30.4118 212.879 30.441L213.087 30.4847ZM225.553 30.4956C222.56 30.4956 221.03 30.492 220.964 30.4847L220.877 30.4738C219.974 30.2844 219.438 29.7381 219.271 28.8349L219.249 15.7022C219.227 14.6387 218.99 13.9213 218.539 13.5498C218.175 13.2584 217.738 13.1128 217.228 13.1128C217.104 13.1128 216.976 13.12 216.845 13.1346C215.731 13.2949 214.496 13.7938 213.142 14.6314C212.683 14.9228 212.442 15.0794 212.42 15.1012C211.962 15.4727 211.51 15.8515 211.066 16.2375V16.2484L210.497 16.6964C208.48 18.3134 206.218 19.6026 203.713 20.5641C203.727 20.7899 203.734 21.0157 203.734 21.2415C203.734 21.8024 203.683 22.3632 203.581 22.9241C203.225 24.8397 202.361 26.4859 200.992 27.8625C200.176 28.671 199.222 29.3047 198.13 29.7636C197.037 30.2152 195.886 30.441 194.677 30.441C193.177 30.441 191.738 30.095 190.361 29.403C188.555 28.4488 187.167 27.0758 186.199 25.284V25.2731C185.427 23.8236 185.041 22.294 185.041 20.6843C185.041 19.8758 185.142 19.0673 185.346 18.2588C185.827 16.3577 186.825 14.7553 188.34 13.4515C189.892 12.1914 191.669 11.503 193.672 11.3865L194.065 11.3756C195.85 11.3756 197.518 11.8454 199.069 12.785C200.373 13.6081 201.422 14.6606 202.216 15.9425C203.01 17.2245 203.494 18.6157 203.669 20.1162C204.74 19.7155 205.778 19.2348 206.783 18.674V13.1565C206.783 13.1565 206.783 13.1565 211.066 11.3319V15.6694C213.477 13.5425 215.72 12.1695 217.796 11.5504L217.851 11.5395C218.419 11.4011 218.939 11.3319 219.413 11.3319C220.003 11.3319 220.513 11.4411 220.943 11.6596C222.283 12.3589 223.106 13.7792 223.412 15.9207L223.477 16.4451C223.506 16.7 223.525 17.0861 223.532 17.6032V28.4416C223.532 29.068 223.772 29.5633 224.253 29.9275C224.588 30.1897 224.952 30.3645 225.346 30.4519L225.553 30.4956ZM197.627 21.3835C198.173 21.3835 198.72 21.3471 199.266 21.2743C198.982 20.4876 198.628 19.6937 198.206 18.8925C197.281 17.1808 196.247 15.7823 195.103 14.697C193.967 13.6044 192.871 12.9307 191.814 12.6757C190.97 13.4988 190.547 14.5331 190.547 15.7786C190.547 16.2739 190.624 16.7656 190.777 17.2536C191.046 18.0694 191.49 18.7723 192.109 19.3623C193.523 20.7098 195.362 21.3835 197.627 21.3835ZM197.54 29.3156C197.824 29.3156 198.097 29.2719 198.359 29.1845C198.534 29.0971 198.705 29.0061 198.873 28.9114H198.883C199.714 28.285 200.129 27.1778 200.129 25.5899C200.129 24.4245 199.892 23.1244 199.419 21.6895C198.843 21.7769 198.268 21.8206 197.693 21.8206C195.988 21.8206 194.477 21.4491 193.158 20.7061C192.394 20.2545 191.742 19.6828 191.203 18.9908C190.474 18.0512 190.11 16.9878 190.11 15.8005C190.11 14.5404 190.5 13.4733 191.279 12.5993L191.093 12.5883C190.729 12.5883 190.39 12.6648 190.077 12.8178L189.913 12.9052C188.988 13.5024 188.526 14.6314 188.526 16.2922C188.526 18.3389 189.17 20.5787 190.46 23.0115C191.232 24.4537 192.088 25.681 193.027 26.6934C193.974 27.6986 194.914 28.427 195.846 28.8786C196.451 29.1699 197.015 29.3156 197.54 29.3156Z" fill="#352E1F"/>
<path d="M131.172 30.2302C131.033 30.2302 130.899 30.2229 130.768 30.2083C129.573 30.0772 128.666 29.4836 128.047 28.4274C127.559 27.5606 127.249 26.6319 127.118 25.6413L127.053 25.106C127.038 24.9894 127.027 24.8438 127.02 24.6689V12.891C127.02 12.891 130.647 11.3068 131.303 11.0664V26.4061C131.419 27.2948 131.714 27.8775 132.188 28.1543C132.523 28.3436 132.898 28.4383 133.313 28.4383C133.495 28.4383 133.688 28.4201 133.892 28.3837C135.021 28.1725 136.201 27.6735 137.432 26.8869C137.862 26.6174 138.088 26.4717 138.11 26.4498C138.568 26.0784 139.02 25.696 139.464 25.3026V12.9019L143.747 11.0774V28.1543C143.747 28.5112 143.816 28.8134 143.955 29.0611C144.093 29.3015 144.261 29.4981 144.457 29.6511C144.661 29.804 144.862 29.9206 145.058 30.0007C145.255 30.0808 145.423 30.1355 145.561 30.1646L145.769 30.2083C142.746 30.2083 141.183 30.201 141.081 30.1864C140.186 29.9971 139.654 29.4508 139.486 28.5476C139.472 28.4675 139.464 27.5788 139.464 25.8817C137.053 28.0086 134.81 29.3816 132.734 30.0007L132.68 30.0116C132.126 30.1573 131.623 30.2302 131.172 30.2302Z" fill="#352E1F"/>
<path d="M81.8222 30.1693H77.1914C76.4445 30.1693 75.5482 29.3218 75.5482 28.3767C75.5482 28.0779 75.5482 15.231 75.5482 15.231C75.5262 14.1669 75.3988 13.7372 74.9506 13.289C74.5024 12.8409 73.7556 12.6915 73.0087 12.6915C72.2617 12.6915 71.6642 12.8409 70.7679 13.289C69.6185 13.8638 68.6765 14.7566 68.2284 15.5001C67.7803 16.2435 67.1827 17.3224 67.1827 19.1149V28.0779C67.1827 29.273 68.6765 30.1693 69.2741 30.1693C66.2345 30.1693 64.7926 30.1693 64.6432 30.1693C63.8963 30.1693 63 29.273 63 28.3767C63 28.2273 63 12.8409 63 12.8409L67.1827 10.4508V13.289C69.4235 11.0483 71.0667 10.5802 73.0087 10.4508C74.3531 10.3611 75.9963 10.56 77.1836 11.347C78.371 12.134 79.3808 13.3645 79.6731 15.5001L79.7309 16.1273C79.7528 16.3751 79.7425 16.8049 79.7498 17.3224L79.7309 28.0779C79.7309 29.273 81.2247 30.1693 81.8222 30.1693Z" fill="#AE996F"/>
<path d="M111.476 12.3575C112.224 11.4236 113.033 11.4664 113.336 11.3149C111.998 10.6025 109.309 10.6836 107.516 11.6481C106.311 12.2968 105.066 13.2949 104.222 14.4864V10.3037L100.039 12.8432L100.047 16.279C99.4495 16.5778 98.9372 16.7162 98.4038 16.8765C97.7901 17.066 96.7606 17.3247 96.4618 17.3247C96.4618 16.279 96.4853 15.3373 96.0542 14.3825C95.8496 13.9233 95.5866 13.5006 95.2651 13.1143C95.0824 12.9029 94.8888 12.7061 94.6842 12.5239C94.5673 12.4219 94.4504 12.3162 94.3335 12.2069C93.033 11.2156 91.5643 10.7929 89.9277 10.9387C88.9486 11.0553 88.0536 11.3906 87.2425 11.9445C86.4388 12.4911 85.7995 13.1944 85.3246 14.0545C84.7327 15.1623 84.2868 17.7861 85.6505 18.3923C85.972 18.0424 85.3319 16.9407 85.741 16.6783C86.1575 16.4087 87.0593 16.5842 86.4532 16.1296C85.6505 15.3827 86.7934 13.9241 87.2425 13.4407C87.7976 12.8432 88.2458 12.5444 88.9927 12.2457C89.7396 11.9469 90.6359 11.9857 91.084 12.0963C91.5322 12.2069 91.7763 12.3404 91.9803 12.5444C92.1844 12.7484 92.2791 13.1419 92.2791 14.337C92.2791 15.6815 92.2645 15.623 92.2791 16.279C92.2791 16.3446 92.2718 16.5122 92.2791 16.5778C92.2937 17.0807 92.2731 17.4728 92.2731 17.9684C92.2731 18.0777 92.2714 18.2683 92.2714 18.3703C91.9726 18.5197 91.1269 18.6134 90.7776 18.6691C90.4282 18.7248 88.9486 19.0544 87.7576 19.3896C86.574 19.7249 85.489 20.2169 84.5026 20.8656C83.5162 21.5142 82.7673 22.3816 82.2558 23.4675C81.9416 24.1818 81.7809 24.9398 81.7736 25.7415C81.7663 26.5433 81.9343 27.294 82.2777 27.9937C82.6869 28.759 83.2641 29.2983 84.0094 29.6117C84.7546 29.9178 85.4635 30.1789 86.3038 30.1716C87.3267 30.1716 88.5819 30.1133 89.5902 29.8728C90.7412 29.5983 91.5322 29.2753 92.4285 28.8272C92.7272 29.4247 93.026 30.1716 94.4207 30.1716H98.591C97.9557 30.1716 96.4618 29.2753 96.4618 28.0802L96.4618 18.6691C96.0234 18.7857 95.6925 18.8394 95.2542 18.9414C94.2678 19.1746 93.2741 19.3714 92.2731 19.5318L92.2791 26.437C92.2791 26.5864 92.2773 26.8291 92.2791 27.0346C92.284 27.5892 92.2791 27.9308 92.284 28.3873H92.2731C91.2334 28.9765 90.0123 29.3335 88.8433 29.5741C87.9665 29.2169 87.3704 28.4128 87.0562 27.5892C86.742 26.7583 86.6105 25.8946 86.6617 24.9981C86.7932 23.0084 87.659 21.4195 89.2591 20.2315C90.0702 19.6557 90.9469 19.2038 91.8895 18.8758L94.4541 18.3182C95.1628 18.1652 95.7604 17.955 96.4618 17.7728C97.061 17.6125 97.6626 17.5069 98.2544 17.3247C98.8024 17.157 99.484 16.9312 100.039 16.7271L100.047 28.379C100.047 29.2753 100.943 30.1716 101.69 30.1716H106.336C105.724 30.1716 104.23 29.2753 104.23 28.0802V21.358C104.23 18.9414 104.644 16.7271 105.417 15.5321C106.19 14.337 107.523 13.626 108.704 13.4407C109.655 13.2914 110.426 13.4407 110.952 14.337C110.952 14.337 110.729 13.2913 111.476 12.3575Z" fill="#AE996F"/>
<path d="M87.6285 17.1825C87.6285 17.9357 87.018 18.5462 86.2648 18.5462C85.5116 18.5462 84.901 17.9357 84.901 17.1825C84.901 16.4293 85.5116 15.8187 86.2648 15.8187C87.018 15.8187 87.6285 16.4293 87.6285 17.1825Z" fill="#AE996F"/>
<path d="M181.717 7.64786C181.717 8.84932 180.743 9.8233 179.541 9.8233C178.34 9.8233 177.366 8.84932 177.366 7.64786C177.366 6.4464 178.34 5.47243 179.541 5.47243C180.743 5.47243 181.717 6.4464 181.717 7.64786Z" fill="#352E1F"/>
<path fill-rule="evenodd" clip-rule="evenodd" d="M174.817 11.6956L175.805 10.3784H170.536V0.5L165.926 2.47569V10.3784L161.646 10.3784L160.658 11.6956L165.926 11.6956V23.8948C165.926 24.8668 166.02 26.0296 166.43 26.857C166.841 27.6844 167.358 28.4917 168.067 29.0621C168.775 29.6324 169.713 30.1353 171.195 30.3C172.677 30.4646 174.763 30.079 175.64 28.3243C176.299 27.0071 175.805 25.5254 174.652 25.0315C174.158 25.0315 172.347 26.8425 173.335 27.1718C174.323 27.5011 174.642 28.0649 173.994 28.3243C173.171 28.6536 172.677 28.7523 172.018 28.4889C171.36 28.2255 170.536 27.5011 170.536 25.3607V11.6956H174.817Z" fill="#352E1F"/>
<path d="M175.399 26.2944C175.399 27.1526 174.703 27.8483 173.845 27.8483C172.987 27.8483 172.291 27.1526 172.291 26.2944C172.291 25.4363 172.987 24.7406 173.845 24.7406C174.703 24.7406 175.399 25.4363 175.399 26.2944Z" fill="#352E1F"/>
<path fill-rule="evenodd" clip-rule="evenodd" d="M124.305 18.8248C124.305 18.8248 124.305 17.8265 124.305 17.7743C124.306 16.7493 124.307 15.4467 123.897 14.5382C123.693 14.079 123.43 13.6563 123.108 13.27C122.926 13.0586 122.732 12.8618 122.527 12.6796C122.41 12.5776 122.294 12.4719 122.177 12.3626C120.876 11.3714 119.407 10.9486 117.771 11.0944C116.792 11.211 115.897 11.5463 115.086 12.1002C114.282 12.6468 113.643 13.3502 113.168 14.2102C112.576 15.3181 112.13 17.9419 113.494 18.548C113.648 18.3803 113.581 18.04 113.515 17.7021C113.443 17.335 113.371 16.9707 113.584 16.8341C113.739 16.7336 113.962 16.6949 114.148 16.6625C114.463 16.6077 114.677 16.5706 114.296 16.2853C113.494 15.5384 114.637 14.0799 115.086 13.5964C115.641 12.9989 116.089 12.7001 116.836 12.4014C117.583 12.1026 118.43 12 118.878 12.112C119.326 12.2241 119.619 12.4961 119.823 12.7001C120.027 12.9042 120.122 13.2977 120.122 14.4927C120.122 15.0689 120.119 15.3874 120.118 15.615C120.115 15.9183 120.114 16.0599 120.122 16.4347C120.122 16.4537 120.122 16.4813 120.121 16.5125C120.119 16.5889 120.117 16.6869 120.122 16.7335C120.131 17.0472 120.127 17.3178 120.122 17.5973C120.119 17.7659 120.116 17.9377 120.116 18.1241C120.116 18.1797 120.116 18.2564 120.115 18.3317C120.115 18.4044 120.114 18.4759 120.114 18.5261C119.874 18.6463 119.279 18.7305 118.874 18.7878C118.776 18.8017 118.689 18.814 118.621 18.8248C118.271 18.8805 116.792 19.2101 115.601 19.5454C114.417 19.8806 113.332 20.3726 112.346 21.0213C111.359 21.67 110.61 22.5373 110.099 23.6233C109.785 24.3375 109.624 25.0955 109.617 25.8973C109.609 26.699 109.777 27.4497 110.121 28.1494C110.53 28.9147 111.107 29.454 111.852 29.7675C112.598 30.0736 113.307 30.3346 114.147 30.3273C115.17 30.3273 116.425 30.2691 117.433 30.0286C118.584 29.754 119.375 29.431 120.272 28.9829C120.286 29.0115 120.3 29.0405 120.315 29.0698C120.602 29.6503 120.936 30.3273 122.264 30.3273H126.434C125.799 30.3273 124.305 29.431 124.305 28.236L124.305 18.8248L120.116 19.6875L120.122 26.5928C120.122 26.638 120.122 26.6918 120.122 26.7505C120.121 26.8857 120.121 27.047 120.122 27.1903C120.125 27.4676 120.125 27.6917 120.125 27.9035C120.125 28.1153 120.125 28.3148 120.127 28.543H120.116C119.077 29.1323 117.855 29.4893 116.686 29.7298C115.81 29.3727 115.213 28.5685 114.899 27.7449C114.585 26.914 114.454 26.0503 114.505 25.1538C114.636 23.1641 115.502 21.5752 117.102 20.3872C117.913 19.8114 119.179 19.4848 120.122 19.1569L120.116 19.6875L124.305 18.8248Z" fill="#352E1F"/>
<path fill-rule="evenodd" clip-rule="evenodd" d="M123.573 13.9202L120.974 17.8009L120.048 19.1824C119.87 19.2432 119.682 19.3042 119.488 19.367C118.665 19.634 117.742 19.9331 117.102 20.3872C115.502 21.5752 114.636 23.1641 114.505 25.1538C114.466 25.8395 114.533 26.5059 114.708 27.1532L112.735 30.0974C112.44 30.0039 112.149 29.8893 111.852 29.7675C111.107 29.454 110.53 28.9147 110.121 28.1494C109.777 27.4497 109.609 26.699 109.617 25.8973C109.624 25.0955 109.785 24.3375 110.099 23.6233C110.61 22.5373 111.359 21.67 112.346 21.0213C113.332 20.3726 114.417 19.8806 115.601 19.5454C116.792 19.2101 118.271 18.8805 118.621 18.8248C118.689 18.814 118.776 18.8017 118.874 18.7878C119.042 18.764 119.388 18.6961 119.388 18.6961C119.388 18.6733 120.122 18.5353 120.122 18.5353V17.5394C120.127 17.2802 120.131 17.0255 120.122 16.7335C120.117 16.6869 120.119 16.5889 120.121 16.5125C120.122 16.4813 120.122 16.4537 120.122 16.4347C120.114 16.0599 120.115 15.9183 120.118 15.615C120.12 15.3875 120.122 15.0681 120.122 14.4927C120.122 13.2977 120.027 12.9042 119.823 12.7001C119.619 12.4961 119.326 12.2241 118.878 12.112C118.43 12 117.583 12.1026 116.836 12.4014C116.089 12.7001 115.641 12.9989 115.086 13.5964C114.694 14.0183 113.774 15.1826 114.079 15.9687C113.332 15.9758 112.728 16.5836 112.728 17.3324C112.728 17.7657 112.93 18.1518 113.245 18.4016C112.19 17.6001 112.615 15.2445 113.168 14.2102C113.643 13.3502 114.282 12.6468 115.086 12.1002C115.897 11.5463 116.792 11.211 117.771 11.0944C119.407 10.9486 120.876 11.3714 122.177 12.3626C122.294 12.4719 122.41 12.5776 122.527 12.6796C122.732 12.8618 122.926 13.0586 123.108 13.27C123.28 13.4763 123.435 13.6931 123.573 13.9202ZM113.245 18.4016C113.32 18.4586 113.403 18.5077 113.494 18.548C113.648 18.3803 113.581 18.04 113.515 17.7021C113.443 17.335 113.371 16.9707 113.584 16.8341C113.739 16.7336 113.962 16.6949 114.148 16.6625C114.463 16.6077 114.677 16.5706 114.296 16.2853C114.194 16.1902 114.123 16.0835 114.079 15.9687L114.092 15.9686C114.845 15.9686 115.456 16.5792 115.456 17.3324C115.456 18.0856 114.845 18.6961 114.092 18.6961C113.772 18.6961 113.478 18.586 113.245 18.4016Z" fill="#AE996F"/>
<path d="M113.494 18.548C113.648 18.3803 113.581 18.04 113.515 17.7021C113.443 17.335 113.371 16.9707 113.584 16.8341C113.739 16.7336 113.962 16.6949 114.148 16.6625C114.463 16.6077 114.677 16.5706 114.296 16.2853C114.194 16.1902 114.123 16.0835 114.079 15.9687C113.332 15.9758 112.728 16.5836 112.728 17.3324C112.728 17.7657 112.93 18.1518 113.245 18.4016C113.32 18.4586 113.403 18.5077 113.494 18.548Z" fill="#AE996F"/>
</svg>
