<svg width="198" height="43" viewBox="0 0 198 43" fill="none" xmlns="http://www.w3.org/2000/svg">
<path d="M11.5908 37.5215C12.9451 37.9779 14.1233 36.6529 13.7176 35.267C13.4872 34.48 12.8707 33.8791 12.1087 33.5993C8.04492 32.1073 5.63811 29.4044 4.23058 23.8713C2.36515 16.5382 4.44636 9.37132 8.43237 5.31508C9.29147 4.44084 10.5534 4.1116 11.7227 4.45664C17.1478 6.05752 22.0292 11.5152 23.8947 18.8482C25.5629 25.4063 24.4036 31.8315 21.2888 36.0177C20.6461 34.8054 19.8254 33.2343 19.483 31.9357C18.4679 28.0862 18.5425 25.4033 18.5751 24.2302C18.596 23.4806 18.5997 23.3476 18.2909 23.9208C17.4991 25.391 14.9678 24.7646 14.5944 24.4831C14.0851 24.0992 13.8174 23.8417 13.665 23.6952C13.4766 23.514 13.4644 23.5023 13.3896 23.6305C13.3374 23.7201 13.7142 24.628 14.2363 25.8862C15.0666 27.8872 16.2647 30.7743 16.6896 32.6645C17.0883 34.4384 17.2076 36.2637 17.304 37.7397C17.3749 38.8255 17.4335 39.7222 17.5819 40.2702C17.9432 41.6044 18.3536 42.1512 19.1589 42.3717C19.6088 42.495 20.0202 42.4711 20.3387 42.3328C20.8211 42.1234 21.2714 41.8196 21.6397 41.4605C27.8018 36.2572 30.4451 27.1378 28.0624 17.771C25.6418 8.25569 18.4701 1.45274 10.4293 0.0545651C9.3775 -0.128326 8.29812 0.153285 7.4645 0.82808C1.09163 5.98678 -1.53037 15.4522 0.890184 24.9675C2.68726 32.0319 6.5009 35.8062 11.5908 37.5215Z" fill="#352E1F"/>
<path fill-rule="evenodd" clip-rule="evenodd" d="M15.9718 16.3536C16.5869 16.5632 17.1619 16.759 17.4596 16.919C17.7739 17.088 17.8558 17.2334 17.8558 17.2334C17.8558 17.2334 18.0413 17.4189 18.1956 17.925C18.3757 18.5151 18.4767 18.9942 18.5733 19.6625C18.6916 20.4811 18.6258 21.0835 18.5373 21.6214C18.2547 23.3393 17.558 24.0139 16.5551 24.0139C14.0677 24.0139 12.9332 22.4506 12.3415 17.9891C12.059 15.8592 11.6111 14.103 11.1154 13.1812C10.7338 12.4719 10.5143 12.2442 9.95065 11.9733C9.38701 11.7024 9.31653 11.3296 9.89636 11.3166C10.6431 11.2998 11.4501 12.0295 12.5019 13.6728C12.9501 14.3732 13.4964 15.1399 13.7158 15.3763C13.9988 15.6814 15.0322 16.0335 15.9718 16.3536ZM17.6989 22.8957C17.849 22.7829 18.1144 21.8555 18.1956 21.1141C18.3941 19.3028 17.133 14.7071 17.3855 19.7962C17.3971 20.0302 17.4078 20.2473 17.4177 20.4487C17.5377 22.8852 17.5439 23.0121 17.6989 22.8957Z" fill="#352E1F"/>
<path fill-rule="evenodd" clip-rule="evenodd" d="M33.6164 11.6748C32.3145 11.7051 30.9851 11.9677 29.6734 12.4426C28.6587 12.8101 27.4907 12.3863 27.0013 11.414C26.9392 11.2906 26.8762 11.1677 26.8121 11.0452C26.5234 10.4925 26.7309 9.79632 27.302 9.55887C30.0233 8.42752 32.9061 7.94906 35.716 8.20745C36.6565 8.29394 37.5158 8.78419 38.0761 9.55406C42.3598 15.4395 42.816 24.2381 38.5982 31.8196C35.0012 38.2851 26.9744 42.9538 22.733 43C22.5166 43.0023 22.4144 42.749 22.5561 42.5832C23.1458 41.8935 24.3694 40.4386 25.1986 39.2888C25.5045 38.8648 25.9196 38.5327 26.3965 38.3265C29.8223 36.845 33.0601 33.9225 35.2867 29.9202C38.5372 24.0774 38.7276 17.5602 36.2356 13.1692C35.6985 12.2229 34.6939 11.6497 33.6164 11.6748Z" fill="#352E1F"/>
<path d="M30.5119 26.3074C30.4572 26.4536 30.2346 26.402 30.2478 26.2463C30.3251 25.3378 30.4225 24.0124 30.4225 23.1062C30.4225 22.5327 30.4027 21.9638 30.3639 21.4002C30.3297 20.9037 30.391 20.4038 30.5654 19.9384L32.6743 14.3095C32.8879 13.7392 33.5176 13.4523 34.0807 13.6687C34.6438 13.8851 34.927 14.5227 34.7134 15.093L30.5119 26.3074Z" fill="#352E1F"/>
<path d="M78.4757 39.13H71.8945C70.833 39.13 69.5592 37.9102 69.5592 36.55C69.5592 36.12 69.5592 17.63 69.5592 17.63C69.528 16.0985 69.3469 15.4801 68.71 14.835C68.0731 14.19 67.0116 13.975 65.9501 13.975C64.8886 13.975 64.0394 14.19 62.7656 14.835C61.1322 15.6622 59.7934 16.9473 59.1566 18.0172C58.5197 19.0872 57.6704 20.64 57.6704 23.22V36.12C57.6704 37.84 59.7934 39.13 60.6426 39.13C56.3229 39.13 54.2737 39.13 54.0614 39.13C52.9999 39.13 51.7261 37.84 51.7261 36.55C51.7261 36.335 51.7261 14.19 51.7261 14.19L57.6704 10.75V14.835C60.8549 11.61 63.1902 10.9363 65.9501 10.75C67.8608 10.621 70.1961 10.9073 71.8835 12.04C73.5709 13.1727 75.0061 14.9437 75.4215 18.0172L75.5035 18.92C75.5347 19.2766 75.5201 19.8952 75.5305 20.64L75.5035 36.12C75.5036 37.84 77.6266 39.13 78.4757 39.13Z" fill="#352E1F"/>
<path d="M120.619 13.491C121.681 12.1469 122.832 12.2085 123.262 11.9904C121.36 10.965 117.539 11.0818 114.991 12.47C113.278 13.4036 111.509 14.8401 110.31 16.555V10.535L104.365 14.19L104.376 19.135C103.527 19.565 102.799 19.7642 102.041 19.995C101.169 20.2677 99.7056 20.64 99.281 20.64C99.281 19.135 99.3144 17.7796 98.7018 16.4054C98.411 15.7446 98.0372 15.1361 97.5803 14.5802C97.3207 14.276 97.0455 13.9927 96.7548 13.7305C96.5886 13.5836 96.4225 13.4315 96.2563 13.2742C94.408 11.8475 92.3209 11.2391 89.9949 11.4489C88.6035 11.6168 87.3314 12.0993 86.1788 12.8965C85.0366 13.6833 84.128 14.6956 83.4531 15.9334C82.612 17.5278 81.9782 21.3042 83.9163 22.1765C84.3732 21.673 83.4635 20.0874 84.045 19.7098C84.6368 19.3216 85.9184 19.5743 85.057 18.92C83.9163 17.845 85.5406 15.7458 86.1788 15.05C86.9677 14.19 87.6046 13.76 88.6661 13.33C89.7276 12.9 91.0014 12.9559 91.6383 13.115C92.2752 13.2742 92.6221 13.4664 92.9121 13.76C93.202 14.0536 93.3367 14.62 93.3367 16.34C93.3367 18.275 93.3159 18.1909 93.3367 19.135C93.3367 19.2294 93.3263 19.4706 93.3367 19.565C93.3574 20.2888 93.3281 20.8532 93.3281 21.5665C93.3281 21.7238 93.3257 21.9981 93.3257 22.145C92.9011 22.36 91.6992 22.4948 91.2027 22.575C90.7062 22.6552 88.6035 23.1295 86.9109 23.612C85.2287 24.0946 83.6867 24.8026 82.2849 25.7362C80.8831 26.6698 79.8187 27.9182 79.0919 29.4812C78.6453 30.5092 78.4169 31.6001 78.4065 32.754C78.3961 33.9079 78.635 34.9884 79.123 35.9954C79.7045 37.0969 80.5248 37.8731 81.584 38.3242C82.6431 38.7648 83.6506 39.1405 84.8447 39.13C86.2985 39.13 88.0823 39.0462 89.5153 38.7C91.151 38.3048 92.2752 37.84 93.549 37.195C93.9736 38.055 94.3982 39.13 96.3802 39.13H102.307C101.404 39.13 99.2811 37.84 99.2811 36.12L99.281 22.575C98.658 22.7428 98.1878 22.82 97.5647 22.9669C96.1629 23.3026 94.7507 23.5858 93.3281 23.8166L93.3367 33.755C93.3367 33.97 93.3341 34.3193 93.3367 34.615C93.3437 35.4132 93.3367 35.905 93.3437 36.5619H93.3281C91.8506 37.41 90.1152 37.9238 88.4538 38.27C87.2077 37.756 86.3605 36.5986 85.914 35.4132C85.4675 34.2174 85.2806 32.9743 85.3533 31.684C85.5402 28.8203 86.7707 26.5335 89.0448 24.8236C90.1974 23.9949 91.4435 23.3445 92.783 22.8725L96.4277 22.07C97.4349 21.8497 98.2842 21.5472 99.281 21.285C100.133 21.0542 100.988 20.9023 101.829 20.64C102.607 20.3987 103.576 20.0737 104.365 19.78L104.376 36.55C104.376 37.84 105.65 39.13 106.711 39.13H113.314C112.444 39.13 110.321 37.84 110.321 36.12V26.445C110.321 22.9669 110.91 19.78 112.008 18.06C113.106 16.34 115.001 15.3166 116.679 15.05C118.031 14.835 119.127 15.05 119.874 16.34C119.874 16.34 119.558 14.835 120.619 13.491Z" fill="#352E1F"/>
<path fill-rule="evenodd" clip-rule="evenodd" d="M137.285 21.8079C137.651 21.6995 137.951 21.6034 138.344 21.5C138.344 21.4271 138.414 21.3395 138.414 21.2644C138.415 19.7891 138.417 17.9145 137.834 16.6069C137.544 15.946 137.17 15.3376 136.713 14.7816C136.453 14.4774 136.178 14.1942 135.887 13.9319C135.721 13.7851 135.555 13.633 135.389 13.4756C133.541 12.049 131.453 11.4405 129.127 11.6503C127.736 11.8182 126.464 12.3007 125.311 13.098C124.169 13.8847 123.261 14.897 122.586 16.1348C121.745 17.7293 121.111 21.5056 123.049 22.378C123.268 22.1367 123.173 21.6468 123.079 21.1605C122.976 20.6321 122.875 20.1079 123.177 19.9112C123.398 19.7666 123.714 19.711 123.979 19.6642C124.427 19.5854 124.73 19.532 124.19 19.1214C123.049 18.0464 124.673 15.9472 125.311 15.2514C126.1 14.3914 126.737 13.9614 127.799 13.5314C128.86 13.1014 130.064 12.9537 130.701 13.115C131.338 13.2762 131.755 13.6678 132.045 13.9614C132.335 14.2551 132.469 14.8214 132.469 16.5414C132.469 17.3707 132.465 17.8291 132.463 18.1566C132.459 18.5932 132.457 18.7969 132.469 19.3364C132.469 19.3638 132.468 19.4035 132.467 19.4484C132.465 19.5583 132.462 19.6994 132.469 19.7664C132.482 20.2179 132.476 20.6074 132.469 21.0097C132.465 21.2523 132.461 21.4996 132.461 21.7679C132.461 21.8479 132.46 21.9582 132.459 22.0666C132.459 22.1713 132.458 22.2743 132.458 22.3464C132.116 22.5195 131.271 22.6407 130.695 22.7231C130.556 22.7431 130.432 22.7608 130.335 22.7764C129.839 22.8566 127.736 23.3309 126.043 23.8135C124.361 24.296 122.819 25.0041 121.417 25.9377C120.016 26.8713 118.951 28.1196 118.224 29.6826C117.778 30.7106 117.549 31.8016 117.539 32.9555C117.529 34.1093 117.768 35.1898 118.256 36.1969C118.837 37.2983 119.657 38.0746 120.717 38.5256C121.776 38.9662 122.783 39.3419 123.977 39.3314C125.431 39.3314 127.215 39.2476 128.648 38.9014C130.284 38.5063 131.408 38.0414 132.682 37.3964C132.702 37.4377 132.722 37.4794 132.743 37.5215C133.15 38.3571 133.626 39.3314 135.513 39.3314H141.44C140.537 39.3314 138.414 38.0414 138.414 36.3214V34.1714L138.414 29.6564V24.9264V22.7764C138.034 22.8788 137.71 22.9475 137.375 23.0188C137.16 23.0644 136.94 23.111 136.697 23.1683C135.295 23.504 133.883 23.7872 132.461 24.018L132.469 33.9564C132.469 34.0215 132.469 34.0989 132.469 34.1834C132.468 34.378 132.467 34.6103 132.469 34.8164C132.473 35.2155 132.473 35.538 132.473 35.8429C132.473 36.1477 132.473 36.4349 132.476 36.7633H132.461C130.983 37.6114 129.248 38.1253 127.586 38.4714C126.34 37.9574 125.493 36.8 125.047 35.6147C124.6 34.4188 124.413 33.1757 124.486 31.8855C124.673 29.0217 125.903 26.7349 128.177 25.0251C129.33 24.1963 130.576 23.546 131.916 23.0739L135.56 22.2714C136.17 22.138 136.723 21.9744 137.285 21.8079Z" fill="#352E1F"/>
<path d="M86.7159 20.4318C86.7159 21.5158 85.8481 22.3946 84.7777 22.3946C83.7073 22.3946 82.8396 21.5158 82.8396 20.4318C82.8396 19.3478 83.7073 18.469 84.7777 18.469C85.8481 18.469 86.7159 19.3478 86.7159 20.4318Z" fill="#352E1F"/>
<path d="M125.848 20.6332C125.848 21.7172 124.981 22.596 123.91 22.596C122.84 22.596 121.972 21.7172 121.972 20.6332C121.972 19.5492 122.84 18.6704 123.91 18.6704C124.981 18.6704 125.848 19.5492 125.848 20.6332Z" fill="#352E1F"/>
<path fill-rule="evenodd" clip-rule="evenodd" d="M159.574 12.9L158.3 14.62H152.78V32.465C152.78 35.26 153.842 36.206 154.691 36.55C155.54 36.894 156.177 36.765 157.239 36.335C158.075 35.9962 157.663 35.26 156.389 34.83C155.116 34.4 157.451 32.035 158.088 32.035C159.574 32.68 160.211 34.615 159.362 36.335C158.23 38.6265 155.54 39.13 153.63 38.915C151.719 38.7 150.51 38.0433 149.596 37.2985C148.682 36.5537 148.015 35.4994 147.486 34.419C146.956 33.3385 146.836 31.82 146.836 30.5507V14.62L144.925 14.62C144.501 15.48 143.015 18.49 138.344 21.5V20.855C141.749 18.705 143.864 15.695 144.288 14.62H140.042L141.316 12.9H145.138C145.511 12.0923 145.706 11.5787 145.987 10.75C146.537 9.09259 146.836 7.31 146.836 5.59V2.58L152.78 2.88685e-09V12.9H159.574ZM145.774 12.9L146.836 12.9V9.245C146.624 10.32 146.392 11.206 145.987 12.255C145.831 12.6746 145.774 12.9 145.774 12.9Z" fill="#352E1F"/>
<path d="M198 39.13C197.151 39.13 196.089 38.27 195.24 36.59C194.391 34.9099 192.704 20.64 185.061 20.64C186.547 19.4133 192.48 14.835 194.603 13.115V10.535C191.843 12.685 180.804 21.5 180.804 21.5C180.804 21.5 180.846 9.15774 180.804 2.88685e-09L174.859 3.01C174.859 3.01 173.614 6.18749 172.524 7.74C171.434 9.28202 170.452 10.0786 168.915 11.18C167.839 11.951 167.217 12.212 165.943 12.47C164.881 12.685 163.183 12.9 162.546 12.9L162.546 36.55C162.546 37.84 163.82 39.13 164.881 39.13H171.463C170.613 39.13 168.49 37.84 168.49 36.12V12.47C169.903 11.5679 171.164 10.4011 172.312 9.245C173.499 7.8918 174.236 6.508 174.859 4.945L174.859 36.55C174.859 37.84 176.133 39.13 177.195 39.13H183.776C182.927 39.13 180.804 37.84 180.804 36.12V24.08C186.536 22.0403 188.871 33.3328 189.508 35.4885C190.145 37.6442 190.994 39.13 192.693 39.13H198Z" fill="#352E1F"/>
<path d="M168.49 4.73C168.49 6.39238 167.16 7.74 165.518 7.74C163.877 7.74 162.546 6.39238 162.546 4.73C162.546 3.06762 163.877 1.72 165.518 1.72C167.16 1.72 168.49 3.06762 168.49 4.73Z" fill="#352E1F"/>
<path d="M159.149 33.755C159.149 34.8237 158.294 35.69 157.239 35.69C156.183 35.69 155.328 34.8237 155.328 33.755C155.328 32.6863 156.183 31.82 157.239 31.82C158.294 31.82 159.149 32.6863 159.149 33.755Z" fill="#352E1F"/>
</svg>
