<svg width="233" height="50" viewBox="0 0 233 50" fill="none" xmlns="http://www.w3.org/2000/svg">
<path d="M13.6396 43.6296C15.2334 44.1604 16.6199 42.6197 16.1424 41.0081C15.8713 40.0931 15.1458 39.3943 14.2492 39.069C9.467 37.3341 6.63474 34.1911 4.9784 27.7573C2.78323 19.2305 5.23233 10.8969 9.92294 6.18033C10.9339 5.16377 12.4189 4.78093 13.7949 5.18214C20.1789 7.04363 25.9233 13.3897 28.1185 21.9166C30.0816 29.5422 28.7174 37.0134 25.052 41.881C24.2956 40.4714 23.3298 38.6445 22.9269 37.1346C21.7325 32.6584 21.8202 29.5387 21.8586 28.1747C21.8831 27.303 21.8875 27.1484 21.5242 27.8149C20.5923 29.5244 17.6136 28.796 17.1742 28.4687C16.5748 28.0223 16.2598 27.723 16.0805 27.5525C15.8588 27.3418 15.8445 27.3282 15.7565 27.4774C15.6951 27.5815 16.1384 28.6372 16.7528 30.1002C17.7299 32.427 19.1397 35.784 19.6398 37.982C20.109 40.0446 20.2493 42.1671 20.3628 43.8834C20.4463 45.1459 20.5152 46.1886 20.6898 46.8259C21.1149 48.3772 21.5979 49.0131 22.5456 49.2694C23.075 49.4128 23.5591 49.3849 23.934 49.2242C24.5016 48.9807 25.0315 48.6274 25.4649 48.2098C32.7163 42.1595 35.8268 31.5556 33.0229 20.664C30.1744 9.59964 21.7351 1.68923 12.2729 0.0634478C11.0351 -0.149217 9.76496 0.178238 8.78399 0.962883C1.2846 6.96137 -1.80089 17.9677 1.04754 29.032C3.16228 37.2464 7.65005 41.6351 13.6396 43.6296Z" fill="#FDE8CD"/>
<path fill-rule="evenodd" clip-rule="evenodd" d="M18.7951 19.0158C19.519 19.2595 20.1955 19.4873 20.5459 19.6733C20.9157 19.8697 21.0121 20.0389 21.0121 20.0389C21.0121 20.0389 21.2304 20.2546 21.412 20.843C21.6239 21.5292 21.7428 22.0863 21.8564 22.8634C21.9957 23.8152 21.9182 24.5157 21.8141 25.1412C21.4815 27.1387 20.6616 27.9231 19.4815 27.9231C16.5544 27.9231 15.2194 26.1054 14.5231 20.9175C14.1907 18.441 13.6636 16.3988 13.0803 15.327C12.6312 14.5022 12.3729 14.2374 11.7096 13.9224C11.0463 13.6074 10.9634 13.174 11.6457 13.1588C12.5245 13.1393 13.4741 13.9878 14.7118 15.8986C15.2393 16.713 15.8821 17.6045 16.1403 17.8794C16.4733 18.2342 17.6894 18.6436 18.7951 19.0158ZM20.8275 26.6229C21.0041 26.4918 21.3165 25.4133 21.412 24.5512C21.6455 22.4451 20.1615 17.1013 20.4587 23.0188C20.4724 23.2909 20.4849 23.5434 20.4966 23.7775C20.6378 26.6107 20.6451 26.7582 20.8275 26.6229Z" fill="#FDE8CD"/>
<path fill-rule="evenodd" clip-rule="evenodd" d="M39.5587 13.5753C38.0267 13.6106 36.4623 13.9159 34.9187 14.4682C33.7246 14.8954 32.3501 14.4027 31.7742 13.272C31.7012 13.1287 31.627 12.9857 31.5517 12.8432C31.2119 12.2006 31.456 11.3911 32.1282 11.115C35.3305 9.79944 38.7229 9.24309 42.0295 9.54355C43.1362 9.64412 44.1474 10.2142 44.8067 11.1094C49.8477 17.953 50.3845 28.1838 45.4211 36.9995C41.1883 44.5176 31.7426 49.9463 26.7515 50C26.4968 50.0027 26.3765 49.7081 26.5433 49.5154C27.2372 48.7134 28.6771 47.0216 29.6529 45.6847C30.0129 45.1916 30.5013 44.8055 31.0625 44.5656C35.0939 42.843 38.9041 39.4447 41.5242 34.7909C45.3493 27.997 45.5733 20.4188 42.6409 15.3131C42.0088 14.2126 40.8267 13.5462 39.5587 13.5753Z" fill="#FDE8CD"/>
<path d="M35.9054 30.59C35.841 30.76 35.5791 30.7 35.5947 30.5189C35.6855 29.4625 35.8002 27.9214 35.8002 26.8677C35.8002 26.2008 35.7769 25.5393 35.7312 24.884C35.691 24.3066 35.7632 23.7254 35.9684 23.1842L38.45 16.6389C38.7014 15.9758 39.4424 15.6423 40.105 15.8938C40.7677 16.1454 41.101 16.8869 40.8496 17.55L35.9054 30.59Z" fill="#FDE8CD"/>
<path d="M92.3477 45.5H84.6031C83.354 45.5 81.855 44.0816 81.855 42.5C81.855 42 81.855 20.5 81.855 20.5C81.8183 18.7191 81.6052 18.0001 80.8557 17.25C80.1062 16.5 78.8571 16.25 77.608 16.25C76.3588 16.25 75.3596 16.5 73.8606 17.25C71.9384 18.2118 70.363 19.7061 69.6135 20.9503C68.864 22.1944 67.8647 24 67.8647 27V42C67.8647 44 70.363 45.5 71.3623 45.5C66.279 45.5 63.8675 45.5 63.6177 45.5C62.3686 45.5 60.8696 44 60.8696 42.5C60.8696 42.25 60.8696 16.5 60.8696 16.5L67.8647 12.5V17.25C71.6121 13.5 74.3602 12.7167 77.608 12.5C79.8564 12.35 82.6045 12.6829 84.5902 14C86.5759 15.3171 88.2648 17.3764 88.7535 20.9503L88.8501 22C88.8868 22.4147 88.8696 23.134 88.8818 24L88.8501 42C88.8502 44 91.3484 45.5 92.3477 45.5Z" fill="#FDE8CD"/>
<path d="M141.941 15.6872C143.19 14.1243 144.544 14.1959 145.051 13.9424C142.813 12.75 138.316 12.8859 135.318 14.5C133.302 15.5856 131.22 17.2559 129.809 19.25V12.25L122.814 16.5L122.827 22.25C121.827 22.75 120.97 22.9817 120.078 23.25C119.052 23.5671 117.33 24 116.831 24C116.831 22.25 116.87 20.674 116.149 19.0761C115.807 18.3076 115.367 17.6002 114.829 16.9537C114.524 16.6 114.2 16.2706 113.858 15.9657C113.662 15.7949 113.467 15.618 113.271 15.4351C111.096 13.7762 108.64 13.0687 105.903 13.3127C104.266 13.5079 102.769 14.0689 101.412 14.996C100.068 15.9108 98.9991 17.0879 98.2049 18.5272C97.2151 20.3812 96.4693 24.7723 98.75 25.7867C99.2877 25.2012 98.2171 23.3574 98.9014 22.9183C99.5979 22.467 101.106 22.7608 100.092 22C98.75 20.75 100.661 18.309 101.412 17.5C102.341 16.5 103.09 16 104.339 15.5C105.589 15 107.087 15.065 107.837 15.25C108.586 15.4351 108.995 15.6586 109.336 16C109.677 16.3414 109.836 17 109.836 19C109.836 21.25 109.811 21.1522 109.836 22.25C109.836 22.3598 109.823 22.6402 109.836 22.75C109.86 23.5916 109.826 24.2479 109.826 25.0773C109.826 25.2603 109.823 25.5792 109.823 25.75C109.323 26 107.909 26.1568 107.324 26.25C106.74 26.3432 104.266 26.8948 102.274 27.4558C100.294 28.0169 98.4798 28.8403 96.8302 29.9259C95.1806 31.0114 93.9281 32.463 93.0727 34.2804C92.5473 35.4758 92.2785 36.7443 92.2663 38.0861C92.254 39.4278 92.5351 40.6842 93.1094 41.8551C93.7937 43.1359 94.759 44.0385 96.0054 44.563C97.2518 45.0753 98.4373 45.5122 99.8425 45.5C101.553 45.5 103.652 45.4025 105.339 45C107.264 44.5405 108.586 44 110.085 43.25C110.585 44.25 111.085 45.5 113.417 45.5H120.392C119.329 45.5 116.831 44 116.831 42L116.831 26.25C116.098 26.4452 115.544 26.5349 114.811 26.7057C113.161 27.096 111.5 27.4254 109.826 27.6937L109.836 39.25C109.836 39.5 109.833 39.9062 109.836 40.25C109.844 41.1782 109.836 41.75 109.844 42.5138H109.826C108.087 43.5 106.045 44.0975 104.09 44.5C102.623 43.9023 101.626 42.5565 101.101 41.1782C100.575 39.7876 100.355 38.3422 100.441 36.8419C100.661 33.512 102.109 30.8529 104.785 28.8647C106.141 27.9011 107.608 27.1448 109.184 26.5959L113.473 25.6628C114.658 25.4066 115.658 25.0549 116.831 24.75C117.833 24.4817 118.839 24.3049 119.829 24C120.745 23.7195 121.885 23.3415 122.814 23L122.827 42.5C122.827 44 124.325 45.5 125.575 45.5H133.344C132.32 45.5 129.822 44 129.822 42V30.75C129.822 26.7057 130.515 23 131.807 21C133.1 19 135.329 17.8101 137.304 17.5C138.895 17.25 140.185 17.5 141.064 19C141.064 19 140.692 17.25 141.941 15.6872Z" fill="#FDE8CD"/>
<path fill-rule="evenodd" clip-rule="evenodd" d="M161.552 25.358C161.983 25.2319 162.336 25.1202 162.799 25C162.799 24.9152 162.881 24.8134 162.881 24.7261C162.883 23.0106 162.885 20.8308 162.199 19.3103C161.857 18.5418 161.417 17.8344 160.879 17.1879C160.574 16.8342 160.25 16.5048 159.908 16.1999C159.712 16.0291 159.517 15.8523 159.321 15.6693C157.146 14.0104 154.69 13.303 151.953 13.5469C150.316 13.7421 148.819 14.3032 147.462 15.2302C146.118 16.145 145.049 17.3221 144.255 18.7614C143.265 20.6154 142.519 25.0065 144.8 26.0209C145.058 25.7403 144.946 25.1707 144.835 24.6053C144.714 23.9908 144.595 23.3812 144.951 23.1526C145.211 22.9845 145.583 22.9197 145.895 22.8654C146.421 22.7738 146.778 22.7116 146.142 22.2342C144.8 20.9842 146.711 18.5433 147.462 17.7342C148.391 16.7342 149.14 16.2342 150.389 15.7342C151.638 15.2342 153.056 15.0625 153.805 15.25C154.555 15.4375 155.045 15.8928 155.386 16.2342C155.727 16.5757 155.885 17.2342 155.885 19.2342C155.885 20.1985 155.881 20.7316 155.878 21.1123C155.874 21.62 155.872 21.8569 155.885 22.4842C155.885 22.516 155.884 22.5622 155.883 22.6144C155.88 22.7422 155.877 22.9063 155.885 22.9842C155.901 23.5092 155.893 23.9621 155.885 24.4299C155.88 24.712 155.875 24.9995 155.875 25.3115C155.875 25.4046 155.875 25.5328 155.874 25.6589C155.873 25.7806 155.873 25.9003 155.873 25.9842C155.47 26.1855 154.475 26.3264 153.798 26.4223C153.634 26.4455 153.488 26.4661 153.374 26.4842C152.79 26.5774 150.316 27.129 148.324 27.6901C146.344 28.2512 144.53 29.0745 142.88 30.1601C141.23 31.2457 139.978 32.6972 139.123 34.5146C138.597 35.71 138.328 36.9786 138.316 38.3203C138.304 39.662 138.585 40.9184 139.159 42.0894C139.844 43.3701 140.809 44.2727 142.055 44.7972C143.302 45.3095 144.487 45.7464 145.892 45.7342C147.603 45.7342 149.702 45.6367 151.389 45.2342C153.314 44.7747 154.636 44.2342 156.135 43.4842C156.159 43.5322 156.183 43.5807 156.207 43.6297C156.687 44.6013 157.246 45.7342 159.467 45.7342H166.442C165.379 45.7342 162.881 44.2342 162.881 42.2342V39.7342L162.881 34.4842V28.9842V26.4842C162.433 26.6033 162.053 26.6831 161.658 26.766C161.406 26.819 161.147 26.8733 160.861 26.9399C159.211 27.3302 157.549 27.6596 155.875 27.9279L155.885 39.4842C155.885 39.5599 155.885 39.6499 155.885 39.7482C155.884 39.9745 155.883 40.2445 155.885 40.4842C155.89 40.9483 155.89 41.3233 155.89 41.6778C155.89 42.0322 155.89 42.3661 155.894 42.748H155.875C154.137 43.7342 152.095 44.3317 150.139 44.7342C148.673 44.1365 147.676 42.7907 147.151 41.4124C146.625 40.0219 146.405 38.5764 146.491 37.0761C146.711 33.7462 148.159 31.0871 150.835 29.0989C152.191 28.1353 153.658 27.379 155.234 26.8301L159.523 25.897C160.241 25.7419 160.891 25.5516 161.552 25.358Z" fill="#FDE8CD"/>
<path d="M102.044 23.7579C102.044 25.0184 101.023 26.0402 99.7637 26.0402C98.5041 26.0402 97.4829 25.0184 97.4829 23.7579C97.4829 22.4974 98.5041 21.4756 99.7637 21.4756C101.023 21.4756 102.044 22.4974 102.044 23.7579Z" fill="#FDE8CD"/>
<path d="M148.094 23.9921C148.094 25.2526 147.073 26.2744 145.814 26.2744C144.554 26.2744 143.533 25.2526 143.533 23.9921C143.533 22.7316 144.554 21.7098 145.814 21.7098C147.073 21.7098 148.094 22.7316 148.094 23.9921Z" fill="#FDE8CD"/>
<path fill-rule="evenodd" clip-rule="evenodd" d="M187.781 15L186.282 17H179.787V37.75C179.787 41 181.036 42.1 182.035 42.5C183.035 42.9 183.784 42.75 185.033 42.25C186.017 41.8561 185.533 41 184.034 40.5C182.535 40 185.283 37.25 186.033 37.25C187.781 38 188.531 40.25 187.532 42.25C186.2 44.9145 183.035 45.5 180.786 45.25C178.538 45 177.115 44.2363 176.04 43.3703C174.964 42.5043 174.18 41.2784 173.556 40.0221C172.933 38.7657 172.792 37 172.792 35.5241V17L170.543 17C170.044 18 168.295 21.5 162.799 25V24.25C166.806 21.75 169.294 18.25 169.794 17H164.797L166.296 15H170.793C171.233 14.0608 171.463 13.4636 171.793 12.5C172.44 10.5728 172.792 8.5 172.792 6.5V3L179.787 0V15H187.781ZM171.543 15L172.792 15V10.75C172.542 12 172.269 13.0302 171.793 14.25C171.609 14.7379 171.543 15 171.543 15Z" fill="#FDE8CD"/>
<path d="M233 45.5C232.001 45.5 230.752 44.5 229.752 42.5465C228.753 40.5929 226.767 24 217.774 24C219.522 22.5736 226.505 17.25 229.003 15.25V12.25C225.755 14.75 212.764 25 212.764 25C212.764 25 212.814 10.6485 212.764 0L205.769 3.5C205.769 3.5 204.304 7.19475 203.021 9C201.738 10.7931 200.582 11.7192 198.774 13C197.508 13.8965 196.775 14.2 195.276 14.5C194.027 14.75 192.028 15 191.279 15L191.279 42.5C191.279 44 192.778 45.5 194.027 45.5H201.772C200.772 45.5 198.274 44 198.274 42V14.5C199.936 13.451 201.42 12.0942 202.771 10.75C204.168 9.17651 205.036 7.56745 205.769 5.75L205.769 42.5C205.769 44 207.268 45.5 208.517 45.5H216.262C215.262 45.5 212.764 44 212.764 42V28C219.509 25.6282 222.257 38.7591 223.007 41.2657C223.756 43.7723 224.756 45.5 226.754 45.5H233Z" fill="#FDE8CD"/>
<path d="M198.274 5.5C198.274 7.433 196.708 9 194.777 9C192.845 9 191.279 7.433 191.279 5.5C191.279 3.567 192.845 2 194.777 2C196.708 2 198.274 3.567 198.274 5.5Z" fill="#FDE8CD"/>
<path d="M187.282 39.25C187.282 40.4926 186.275 41.5 185.033 41.5C183.792 41.5 182.785 40.4926 182.785 39.25C182.785 38.0074 183.792 37 185.033 37C186.275 37 187.282 38.0074 187.282 39.25Z" fill="#FDE8CD"/>
</svg>
