<svg width="42" height="43" viewBox="0 0 42 43" fill="none" xmlns="http://www.w3.org/2000/svg">
<path d="M21 0.5C9.40313 0.5 0 9.90313 0 21.5C0 33.0969 9.40313 42.5 21 42.5C32.5969 42.5 42 33.0969 42 21.5C42 9.90313 32.5969 0.5 21 0.5ZM31.0922 16.3297C31.1062 16.55 31.1062 16.7797 31.1062 17.0047C31.1062 23.8859 25.8656 31.8125 16.2891 31.8125C13.3359 31.8125 10.5984 30.9547 8.29219 29.4781C8.71406 29.525 9.11719 29.5437 9.54844 29.5437C11.9859 29.5437 14.2266 28.7188 16.0125 27.3219C13.725 27.275 11.8031 25.775 11.1469 23.7125C11.9484 23.8297 12.6703 23.8297 13.4953 23.6188C12.3175 23.3795 11.2588 22.7398 10.4991 21.8084C9.73949 20.877 9.32572 19.7113 9.32812 18.5094V18.4437C10.0172 18.8328 10.8281 19.0719 11.6766 19.1047C10.9633 18.6293 10.3784 17.9854 9.97365 17.2298C9.5689 16.4743 9.35683 15.6306 9.35625 14.7734C9.35625 13.8031 9.60938 12.9172 10.0641 12.1484C11.3714 13.7578 13.0028 15.0741 14.8522 16.0117C16.7016 16.9493 18.7275 17.4873 20.7984 17.5906C20.0625 14.0516 22.7063 11.1875 25.8844 11.1875C27.3844 11.1875 28.7344 11.8156 29.6859 12.8281C30.8625 12.6078 31.9875 12.1672 32.9906 11.5766C32.6016 12.7812 31.7859 13.7984 30.7031 14.4406C31.7531 14.3281 32.7656 14.0375 33.7031 13.6297C32.9953 14.6703 32.1094 15.5938 31.0922 16.3297Z" fill="#1DA1F2"/>
</svg>
