<svg width="42" height="43" viewBox="0 0 42 43" fill="none" xmlns="http://www.w3.org/2000/svg">
<path d="M21 0.5C9.40188 0.5 0 9.90188 0 21.5C0 33.0981 9.40188 42.5 21 42.5C32.5981 42.5 42 33.0981 42 21.5C42 9.90188 32.5981 0.5 21 0.5ZM15.8594 30.2041H11.6069V16.5191H15.8594V30.2041ZM13.7069 14.8391C12.3637 14.8391 11.4953 13.8875 11.4953 12.7106C11.4953 11.5097 12.39 10.5866 13.7616 10.5866C15.1331 10.5866 15.9731 11.5097 15.9994 12.7106C15.9994 13.8875 15.1331 14.8391 13.7069 14.8391ZM31.3906 30.2041H27.1381V22.62C27.1381 20.8547 26.5213 19.6559 24.9834 19.6559C23.8088 19.6559 23.1109 20.4675 22.8025 21.2484C22.6888 21.5263 22.6603 21.92 22.6603 22.3116V30.2019H18.4056V20.8831C18.4056 19.1747 18.3509 17.7463 18.2941 16.5169H21.9888L22.1834 18.4178H22.2688C22.8288 17.5253 24.2003 16.2084 26.495 16.2084C29.2928 16.2084 31.3906 18.0831 31.3906 22.1125V30.2041Z" fill="#0078B5"/>
</svg>
