<svg width="42" height="43" viewBox="0 0 42 43" fill="none" xmlns="http://www.w3.org/2000/svg">
<path fill-rule="evenodd" clip-rule="evenodd" d="M15.6098 21.5C15.6098 24.5524 18.0158 27.0158 20.9972 27.0158C23.9785 27.0158 26.3846 24.5524 26.3846 21.5C26.3846 18.4476 23.9785 15.9842 20.9972 15.9842C18.0158 15.9842 15.6098 18.4476 15.6098 21.5ZM17.4958 21.5C17.4958 19.526 19.0692 17.9151 20.9972 17.9151C22.9252 17.9151 24.4986 19.526 24.4986 21.5C24.4986 23.474 22.9252 25.0849 20.9972 25.0849C19.0692 25.0849 17.4958 23.474 17.4958 21.5Z" fill="url(#paint0_linear_203_613)"/>
<path d="M25.347 15.7583C25.347 16.471 25.9092 17.0465 26.6052 17.0465C26.7705 17.0467 26.9342 17.0135 27.087 16.9489C27.2397 16.8842 27.3785 16.7893 27.4954 16.6697C27.6123 16.55 27.7049 16.4079 27.7681 16.2515C27.8312 16.0951 27.8636 15.9275 27.8634 15.7583C27.8634 15.0456 27.3013 14.4701 26.6052 14.4701C25.9092 14.4701 25.347 15.0456 25.347 15.7583Z" fill="url(#paint1_linear_203_613)"/>
<path fill-rule="evenodd" clip-rule="evenodd" d="M21 43C32.598 43 42 33.3741 42 21.5C42 9.62588 32.598 0 21 0C9.40202 0 0 9.62588 0 21.5C0 33.3741 9.40202 43 21 43ZM31.4992 20.9571C31.499 21.1379 31.4988 21.3188 31.4988 21.5C31.4988 21.7026 31.4991 21.905 31.4994 22.1071C31.5013 23.3863 31.5031 24.6578 31.4305 25.9374C31.3491 27.6585 30.9682 29.1834 29.7363 30.4447C28.507 31.7033 27.015 32.0959 25.3339 32.1793C24.0632 32.2525 22.8006 32.251 21.5302 32.2496C21.3535 32.2494 21.1768 32.2492 20.9998 32.2492C20.8232 32.2492 20.6467 32.2494 20.4704 32.2496C19.2016 32.251 17.9387 32.2525 16.6657 32.1793C14.9846 32.0959 13.4952 31.706 12.2633 30.4447C11.034 29.1861 10.6505 27.6585 10.5691 25.9374C10.4976 24.6364 10.499 23.3416 10.5004 22.0421C10.5006 21.8615 10.5008 21.6808 10.5008 21.5C10.5008 21.3192 10.5006 21.1385 10.5004 20.958C10.499 19.659 10.4976 18.366 10.5691 17.0626C10.6505 15.3415 11.0314 13.8166 12.2633 12.5553C13.4926 11.2967 14.9846 10.9041 16.6657 10.8207C17.9364 10.7475 19.1989 10.749 20.4694 10.7504C20.646 10.7506 20.8228 10.7508 20.9998 10.7508C21.1764 10.7508 21.3529 10.7506 21.5292 10.7504C22.798 10.749 24.0609 10.7475 25.3339 10.8207C27.015 10.9041 28.5044 11.294 29.7363 12.5553C30.9656 13.8139 31.3491 15.3415 31.4305 17.0626C31.502 18.3636 31.5006 19.6563 31.4992 20.9571Z" fill="url(#paint2_linear_203_613)"/>
<defs>
<linearGradient id="paint0_linear_203_613" x1="-0.304348" y1="0.623188" x2="43.2771" y2="41.9748" gradientUnits="userSpaceOnUse">
<stop stop-color="#5432D1"/>
<stop offset="0.404167" stop-color="#D42755"/>
<stop offset="0.664583" stop-color="#F0622E"/>
<stop offset="1" stop-color="#F5BF52"/>
</linearGradient>
<linearGradient id="paint1_linear_203_613" x1="-0.304348" y1="0.623188" x2="43.2771" y2="41.9748" gradientUnits="userSpaceOnUse">
<stop stop-color="#5432D1"/>
<stop offset="0.404167" stop-color="#D42755"/>
<stop offset="0.664583" stop-color="#F0622E"/>
<stop offset="1" stop-color="#F5BF52"/>
</linearGradient>
<linearGradient id="paint2_linear_203_613" x1="-0.304348" y1="0.623188" x2="43.2771" y2="41.9748" gradientUnits="userSpaceOnUse">
<stop stop-color="#5432D1"/>
<stop offset="0.404167" stop-color="#D42755"/>
<stop offset="0.664583" stop-color="#F0622E"/>
<stop offset="1" stop-color="#F5BF52"/>
</linearGradient>
</defs>
</svg>
