<svg width="18" height="13" viewBox="0 0 18 13" fill="none" xmlns="http://www.w3.org/2000/svg">
<path d="M2.86999 0.850098H16.12C17.37 0.850098 18 1.4401 18 2.6401V11.0601C18 12.2501 17.37 12.8501 16.12 12.8501H2.86999C1.61999 12.8501 0.98999 12.2501 0.98999 11.0601V2.6401C0.98999 1.4401 1.61999 0.850098 2.86999 0.850098ZM9.48999 9.4501L16.23 3.9201C16.47 3.7201 16.66 3.2601 16.36 2.8501C16.07 2.4401 15.54 2.4301 15.19 2.6801L9.48999 6.5401L3.79999 2.6801C3.44999 2.4301 2.91999 2.4401 2.62999 2.8501C2.32999 3.2601 2.51999 3.7201 2.75999 3.9201L9.48999 9.4501Z" fill="#FDE8CD"/>
</svg>
