<svg width="40" height="40" viewBox="0 0 40 40" fill="none" xmlns="http://www.w3.org/2000/svg">
<path fill-rule="evenodd" clip-rule="evenodd" d="M20 0C8.95455 0 0 8.95455 0 20C0 31.0455 8.95455 40 20 40C31.0455 40 40 31.0455 40 20C40 8.95455 31.0455 0 20 0ZM15.9873 14.0127C15.6561 13.6698 15.4728 13.2105 15.477 12.7338C15.4811 12.2571 15.6723 11.8011 16.0094 11.464C16.3465 11.1269 16.8025 10.9356 17.2793 10.9315C17.756 10.9274 18.2153 11.1106 18.5582 11.4418L25.8309 18.7145C26.1718 19.0555 26.3632 19.5179 26.3632 20C26.3632 20.4821 26.1718 20.9445 25.8309 21.2855L18.5582 28.5582C18.2153 28.8894 17.756 29.0726 17.2793 29.0685C16.8025 29.0644 16.3465 28.8731 16.0094 28.536C15.6723 28.1989 15.4811 27.7429 15.477 27.2662C15.4728 26.7895 15.6561 26.3302 15.9873 25.9873L21.9745 20L15.9873 14.0127Z" fill="#211D14"/>
</svg>
