<svg width="10" height="15" viewBox="0 0 10 15" fill="none" xmlns="http://www.w3.org/2000/svg">
<path d="M5.00962 0C2.67788 0 0.769444 1.80516 0.769444 4.01062V4.5584H2.46754V4.01062C2.46754 2.67316 3.59562 1.60617 5.00962 1.60617C6.42362 1.60617 7.55171 2.67316 7.55171 4.01062V6.20797C6.80366 5.7852 5.93068 5.54156 5 5.54156C2.24865 5.54156 0 7.66844 0 10.2708C0 12.8731 2.24865 15 5 15C7.75135 15 10 12.8732 10 10.2708C10 9.36102 9.72491 8.50953 9.24984 7.78656V4.01062C9.24984 1.80516 7.34141 0 5.00966 0H5.00962ZM5 7.14773C6.8336 7.14773 8.30186 8.53648 8.30186 10.2708C8.30186 12.0051 6.8336 13.3938 5 13.3938C3.1664 13.3938 1.69814 12.0051 1.69814 10.2708C1.69814 8.53648 3.1664 7.14773 5 7.14773ZM5.01631 8.95996C4.24258 8.95996 3.61537 9.5532 3.61537 10.285C3.61537 11.0169 4.24258 11.6101 5.01631 11.6101C5.79001 11.6101 6.41726 11.0169 6.41726 10.285C6.41726 9.5532 5.79001 8.95996 5.01631 8.95996Z" fill="#01917D"/>
</svg>
