<svg width="21" height="22" viewBox="0 0 21 22" fill="none" xmlns="http://www.w3.org/2000/svg">
<path d="M18.1617 5.09443L15.9776 2.9124C15.8235 2.75766 15.6404 2.63488 15.4387 2.55112C15.2371 2.46736 15.0208 2.42426 14.8025 2.42432C14.3575 2.42432 13.9391 2.59863 13.6253 2.9124L11.2751 5.2626C11.1204 5.41667 10.9976 5.59979 10.9139 5.80145C10.8301 6.00311 10.787 6.21933 10.787 6.4377C10.787 6.88272 10.9614 7.30107 11.2751 7.61484L12.9937 9.3334C12.5914 10.2201 12.0321 11.0267 11.3428 11.7144C10.6552 12.4053 9.84867 12.9667 8.96185 13.3714L7.2433 11.6528C7.08923 11.4981 6.90611 11.3753 6.70445 11.2915C6.50279 11.2078 6.28657 11.1647 6.0682 11.1647C5.62318 11.1647 5.20482 11.3391 4.89105 11.6528L2.53881 14.001C2.38387 14.1553 2.26099 14.3388 2.17722 14.5408C2.09346 14.7428 2.05047 14.9594 2.05072 15.1781C2.05072 15.6231 2.22504 16.0415 2.53881 16.3553L4.71879 18.5353C5.21918 19.0377 5.91029 19.3228 6.61986 19.3228C6.76957 19.3228 6.91312 19.3104 7.05463 19.2858C9.81908 18.8306 12.561 17.3602 14.7738 15.1494C16.9845 12.9407 18.4529 10.2009 18.9143 7.42822C19.0537 6.58125 18.7728 5.70967 18.1617 5.09443Z" fill="#FDE8CD"/>
</svg>
