<svg width="41" height="40" viewBox="0 0 41 40" fill="none" xmlns="http://www.w3.org/2000/svg">
<g clip-path="url(#clip0_162_453)">
<path fill-rule="evenodd" clip-rule="evenodd" d="M20.0015 39.9999C31.0469 39.9999 40.0015 31.0453 40.0015 19.9999C40.0015 8.95442 31.0469 -0.000120878 20.0015 -0.000120878C8.95601 -0.000120878 0.00146604 8.95442 0.00146604 19.9999C0.00146604 31.0453 8.95601 39.9999 20.0015 39.9999ZM24.0142 25.9872C24.3454 26.3301 24.5287 26.7893 24.5245 27.2661C24.5204 27.7428 24.3292 28.1988 23.992 28.5359C23.6549 28.873 23.1989 29.0642 22.7222 29.0684C22.2455 29.0725 21.7862 28.8893 21.4433 28.5581L14.1706 21.2853C13.8297 20.9444 13.6382 20.482 13.6382 19.9999C13.6382 19.5178 13.8297 19.0554 14.1706 18.7144L21.4433 11.4417C21.7862 11.1105 22.2455 10.9272 22.7222 10.9314C23.1989 10.9355 23.6549 11.1267 23.992 11.4638C24.3292 11.801 24.5204 12.257 24.5245 12.7337C24.5287 13.2104 24.3454 13.6697 24.0142 14.0126L18.0269 19.9999L24.0142 25.9872Z" fill="#211D14"/>
</g>
<defs>
<clipPath id="clip0_162_453">
<rect width="40" height="40" fill="white" transform="translate(40.0015 39.9999) rotate(-180)"/>
</clipPath>
</defs>
</svg>
