<svg width="66" height="50" viewBox="0 0 66 50" fill="none" xmlns="http://www.w3.org/2000/svg">
<path d="M36.6888 12.8C36.6888 8.93333 37.9517 5.8 40.4773 3.4C43.003 1.13333 46.1934 -1.73155e-06 50.0483 -1.39454e-06C54.7009 -9.87798e-07 58.5559 1.53333 61.6133 4.6C64.5378 7.66666 66 12.0667 66 17.8C66 23.9333 64.2719 29.9333 60.8157 35.8C57.2266 41.8 52.2417 46.5333 45.861 50L41.2749 43C44.7311 40.6 47.5227 37.9333 49.6495 35C51.6435 32.0667 52.9728 28.6667 53.6375 24.8C52.4411 25.3333 51.0453 25.6 49.4502 25.6C45.7281 25.6 42.6707 24.4 40.2779 22C37.8852 19.6 36.6888 16.5333 36.6888 12.8ZM3.25213e-06 12.8C3.59016e-06 8.93333 1.26284 5.8 3.78852 3.4C6.3142 1.13333 9.50454 -4.93899e-06 13.3595 -4.60198e-06C18.0121 -4.19524e-06 21.8671 1.53333 24.9245 4.59999C27.8489 7.66666 29.3112 12.0667 29.3112 17.8C29.3112 23.9333 27.5831 29.9333 24.1269 35.8C20.5378 41.8 15.5529 46.5333 9.17221 50L4.58611 43C8.0423 40.6 10.8338 37.9333 12.9607 35C14.9547 32.0667 16.284 28.6667 16.9486 24.8C15.7523 25.3333 14.3565 25.6 12.7613 25.6C9.03928 25.6 5.98187 24.4 3.58913 22C1.19638 19.6 2.92575e-06 16.5333 3.25213e-06 12.8Z" fill="#FEB528"/>
</svg>
