<svg width="15" height="16" viewBox="0 0 15 16" fill="none" xmlns="http://www.w3.org/2000/svg">
<path d="M8.22581 0.774194C8.22581 0.568865 8.14934 0.371945 8.01322 0.226756C7.87711 0.0815666 7.6925 0 7.5 0C7.3075 0 7.12289 0.0815666 6.98678 0.226756C6.85066 0.371945 6.77419 0.568865 6.77419 0.774194V6.13161L4.24935 3.43742C4.18237 3.36351 4.10225 3.30457 4.01368 3.26404C3.92512 3.22351 3.82987 3.2022 3.73349 3.20136C3.63712 3.20051 3.54156 3.22015 3.45238 3.25912C3.36319 3.2981 3.28218 3.35562 3.21407 3.42835C3.14595 3.50107 3.0921 3.58754 3.05564 3.6827C3.01919 3.77787 3.00087 3.87982 3.00176 3.98262C3.00264 4.08541 3.02271 4.18699 3.06079 4.28143C3.09887 4.37586 3.1542 4.46126 3.22355 4.53264L5.74742 7.22581H0.725806C0.533311 7.22581 0.348699 7.30737 0.212584 7.45256C0.0764687 7.59775 0 7.79467 0 8C0 8.20533 0.0764687 8.40225 0.212584 8.54744C0.348699 8.69263 0.533311 8.77419 0.725806 8.77419H5.74839L3.22258 11.4674C3.15329 11.5388 3.09804 11.6243 3.06004 11.7187C3.02204 11.8132 3.00207 11.9148 3.00127 12.0176C3.00048 12.1204 3.01889 12.2223 3.05543 12.3175C3.09196 12.4126 3.1459 12.499 3.21408 12.5717C3.28226 12.6443 3.36332 12.7018 3.45253 12.7406C3.54175 12.7795 3.63733 12.7991 3.7337 12.7981C3.83007 12.7972 3.9253 12.7758 4.01384 12.7352C4.10237 12.6945 4.18243 12.6355 4.24935 12.5615L6.77419 9.86942V15.2258C6.77419 15.4311 6.85066 15.6281 6.98678 15.7732C7.12289 15.9184 7.3075 16 7.5 16C7.6925 16 7.87711 15.9184 8.01322 15.7732C8.14934 15.6281 8.22581 15.4311 8.22581 15.2258V9.86839L10.7506 12.5626C10.8176 12.6365 10.8977 12.6954 10.9863 12.736C11.0749 12.7765 11.1701 12.7978 11.2665 12.7986C11.3629 12.7995 11.4584 12.7798 11.5476 12.7409C11.6368 12.7019 11.7178 12.6444 11.7859 12.5717C11.854 12.4989 11.9079 12.4125 11.9444 12.3173C11.9808 12.2221 11.9991 12.1202 11.9982 12.0174C11.9974 11.9146 11.9773 11.813 11.9392 11.7186C11.9011 11.6241 11.8458 11.5387 11.7765 11.4674L9.25258 8.77419H14.2742C14.4667 8.77419 14.6513 8.69263 14.7874 8.54744C14.9235 8.40225 15 8.20533 15 8C15 7.79467 14.9235 7.59775 14.7874 7.45256C14.6513 7.30737 14.4667 7.22581 14.2742 7.22581H9.25161L11.7774 4.53264C11.9096 4.38656 11.9826 4.19096 11.9809 3.98797C11.9792 3.78498 11.9027 3.59084 11.7681 3.44737C11.6335 3.30389 11.4514 3.22256 11.2611 3.2209C11.0708 3.21923 10.8875 3.29736 10.7506 3.43845L8.22581 6.13058V0.774194Z" fill="#FEB528"/>
</svg>
