<svg width="19" height="18" viewBox="0 0 19 18" fill="none" xmlns="http://www.w3.org/2000/svg">
<path d="M17.5 8.39001C17.6858 8.25158 17.8237 8.05845 17.8942 7.83772C17.9648 7.61698 17.9644 7.37971 17.8933 7.15917C17.8222 6.93863 17.6838 6.74587 17.4976 6.60794C17.3114 6.47 17.0867 6.3938 16.855 6.39001L12.355 6.22001C12.3329 6.21849 12.3117 6.21059 12.2939 6.19729C12.2762 6.18398 12.2627 6.16583 12.255 6.14501L10.7 1.94501C10.6219 1.73133 10.48 1.54682 10.2935 1.41646C10.107 1.2861 9.88503 1.21619 9.65751 1.21619C9.43 1.21619 9.20798 1.2861 9.02151 1.41646C8.83504 1.54682 8.69314 1.73133 8.61501 1.94501L7.06501 6.16001C7.05735 6.18083 7.04383 6.19898 7.02609 6.21229C7.00835 6.22559 6.98714 6.23349 6.96501 6.23501L2.46501 6.40501C2.23331 6.4088 2.00861 6.485 1.82241 6.62294C1.63621 6.76087 1.49784 6.95363 1.42672 7.17417C1.35559 7.39471 1.35527 7.63198 1.4258 7.85272C1.49634 8.07345 1.63418 8.26658 1.82001 8.40501L5.35001 11.18C5.36768 11.1939 5.38088 11.2127 5.38799 11.234C5.3951 11.2553 5.3958 11.2783 5.39001 11.3L4.17501 15.605C4.11205 15.8242 4.11815 16.0575 4.19248 16.2732C4.26681 16.4888 4.40576 16.6763 4.59044 16.8102C4.77511 16.944 4.99653 17.0177 5.22459 17.0213C5.45264 17.0248 5.67626 16.9581 5.86501 16.83L9.59501 14.33C9.61339 14.3173 9.63519 14.3105 9.65751 14.3105C9.67984 14.3105 9.70164 14.3173 9.72001 14.33L13.45 16.83C13.6362 16.9624 13.859 17.0336 14.0875 17.0336C14.316 17.0336 14.5388 16.9624 14.725 16.83C14.9097 16.6974 15.0488 16.5108 15.1231 16.2959C15.1975 16.081 15.2033 15.8484 15.14 15.63L13.915 11.31C13.9085 11.2883 13.9089 11.2652 13.916 11.2437C13.9232 11.2222 13.9368 11.2035 13.955 11.19L17.5 8.39001Z" fill="#F7F3EE"/>
</svg>
