<svg width="18" height="18" viewBox="0 0 18 18" fill="none" xmlns="http://www.w3.org/2000/svg">
<g clip-path="url(#clip0_269_1115)">
<path d="M16.5556 8.39001C16.7311 8.25158 16.8612 8.05845 16.9279 7.83772C16.9945 7.61698 16.9942 7.37971 16.927 7.15917C16.8598 6.93863 16.7291 6.74587 16.5533 6.60794C16.3774 6.47 16.1652 6.3938 15.9464 6.39001L11.6964 6.22001C11.6755 6.21849 11.6555 6.21059 11.6387 6.19729C11.6219 6.18398 11.6092 6.16583 11.6019 6.14501L10.1333 1.94501C10.0595 1.73133 9.92552 1.54682 9.74942 1.41646C9.57331 1.2861 9.36362 1.21619 9.14875 1.21619C8.93387 1.21619 8.72418 1.2861 8.54808 1.41646C8.37197 1.54682 8.23795 1.73133 8.16416 1.94501L6.70027 6.16001C6.69304 6.18083 6.68027 6.19898 6.66352 6.21229C6.64676 6.22559 6.62673 6.23349 6.60583 6.23501L2.35583 6.40501C2.137 6.4088 1.92478 6.485 1.74893 6.62294C1.57307 6.76087 1.44239 6.95363 1.37522 7.17417C1.30804 7.39471 1.30774 7.63198 1.37436 7.85272C1.44097 8.07345 1.57116 8.26658 1.74666 8.40501L5.08055 11.18C5.09724 11.1939 5.10971 11.2127 5.11642 11.234C5.12314 11.2553 5.1238 11.2783 5.11833 11.3L3.97083 15.605C3.91137 15.8242 3.91713 16.0575 3.98733 16.2732C4.05753 16.4888 4.18876 16.6763 4.36317 16.8102C4.53759 16.944 4.74671 17.0177 4.9621 17.0213C5.17748 17.0248 5.38867 16.9581 5.56694 16.83L9.08972 14.33C9.10707 14.3173 9.12766 14.3105 9.14875 14.3105C9.16983 14.3105 9.19042 14.3173 9.20777 14.33L12.7306 16.83C12.9064 16.9624 13.1168 17.0336 13.3326 17.0336C13.5484 17.0336 13.7589 16.9624 13.9347 16.83C14.1092 16.6974 14.2405 16.5108 14.3107 16.2959C14.3809 16.081 14.3865 15.8484 14.3267 15.63L13.1697 11.31C13.1636 11.2883 13.1639 11.2652 13.1707 11.2437C13.1774 11.2222 13.1903 11.2035 13.2075 11.19L16.5556 8.39001Z" fill="#FEB528"/>
<g clip-path="url(#clip1_269_1115)">
<path d="M16.5556 8.39001C16.7311 8.25158 16.8612 8.05845 16.9279 7.83772C16.9945 7.61698 16.9942 7.37971 16.927 7.15917C16.8598 6.93863 16.7291 6.74587 16.5533 6.60794C16.3774 6.47 16.1652 6.3938 15.9464 6.39001L11.6964 6.22001C11.6755 6.21849 11.6555 6.21059 11.6387 6.19729C11.6219 6.18398 11.6092 6.16583 11.6019 6.14501L10.1333 1.94501C10.0595 1.73133 9.92552 1.54682 9.74942 1.41646C9.57331 1.2861 9.36362 1.21619 9.14875 1.21619C8.93387 1.21619 8.72418 1.2861 8.54808 1.41646C8.37197 1.54682 8.23795 1.73133 8.16416 1.94501L6.70027 6.16001C6.69304 6.18083 6.68027 6.19898 6.66352 6.21229C6.64676 6.22559 6.62673 6.23349 6.60583 6.23501L2.35583 6.40501C2.137 6.4088 1.92478 6.485 1.74893 6.62294C1.57307 6.76087 1.44239 6.95363 1.37522 7.17417C1.30804 7.39471 1.30774 7.63198 1.37436 7.85272C1.44097 8.07345 1.57116 8.26658 1.74666 8.40501L5.08055 11.18C5.09724 11.1939 5.10971 11.2127 5.11642 11.234C5.12314 11.2553 5.1238 11.2783 5.11833 11.3L3.97083 15.605C3.91137 15.8242 3.91713 16.0575 3.98733 16.2732C4.05753 16.4888 4.18876 16.6763 4.36317 16.8102C4.53759 16.944 4.74671 17.0177 4.9621 17.0213C5.17748 17.0248 5.38867 16.9581 5.56694 16.83L9.08972 14.33C9.10707 14.3173 9.12766 14.3105 9.14875 14.3105C9.16983 14.3105 9.19042 14.3173 9.20777 14.33L12.7306 16.83C12.9064 16.9624 13.1168 17.0336 13.3326 17.0336C13.5484 17.0336 13.7589 16.9624 13.9347 16.83C14.1092 16.6974 14.2405 16.5108 14.3107 16.2959C14.3809 16.081 14.3865 15.8484 14.3267 15.63L13.1697 11.31C13.1636 11.2883 13.1639 11.2652 13.1707 11.2437C13.1774 11.2222 13.1903 11.2035 13.2075 11.19L16.5556 8.39001Z" fill="#FEB528"/>
<path d="M16.5556 8.39001C16.7311 8.25158 16.8612 8.05845 16.9279 7.83772C16.9945 7.61698 16.9942 7.37971 16.927 7.15917C16.8598 6.93863 16.7291 6.74587 16.5533 6.60794C16.3774 6.47 16.1652 6.3938 15.9464 6.39001L11.6964 6.22001C11.6755 6.21849 11.6555 6.21059 11.6387 6.19729C11.6219 6.18398 11.6092 6.16583 11.6019 6.14501L10.1333 1.94501C10.0595 1.73133 9.92552 1.54682 9.74942 1.41646C9.57331 1.2861 9.36362 1.21619 9.14875 1.21619C8.93387 1.21619 8.72418 1.2861 8.54808 1.41646C8.37197 1.54682 8.23795 1.73133 8.16416 1.94501L6.70027 6.16001C6.69304 6.18083 6.68027 6.19898 6.66352 6.21229C6.64676 6.22559 6.62673 6.23349 6.60583 6.23501L2.35583 6.40501C2.137 6.4088 1.92478 6.485 1.74893 6.62294C1.57307 6.76087 1.44239 6.95363 1.37522 7.17417C1.30804 7.39471 1.30774 7.63198 1.37436 7.85272C1.44097 8.07345 1.57116 8.26658 1.74666 8.40501L5.08055 11.18C5.09724 11.1939 5.10971 11.2127 5.11642 11.234C5.12314 11.2553 5.1238 11.2783 5.11833 11.3L3.97083 15.605C3.91137 15.8242 3.91713 16.0575 3.98733 16.2732C4.05753 16.4888 4.18876 16.6763 4.36317 16.8102C4.53759 16.944 4.74671 17.0177 4.9621 17.0213C5.17748 17.0248 5.38867 16.9581 5.56694 16.83L9.08972 14.33C9.10707 14.3173 9.12766 14.3105 9.14875 14.3105C9.16983 14.3105 9.19042 14.3173 9.20777 14.33L12.7306 16.83C12.9064 16.9624 13.1168 17.0336 13.3326 17.0336C13.5484 17.0336 13.7589 16.9624 13.9347 16.83C14.1092 16.6974 14.2405 16.5108 14.3107 16.2959C14.3809 16.081 14.3865 15.8484 14.3267 15.63L13.1697 11.31C13.1636 11.2883 13.1639 11.2652 13.1707 11.2437C13.1774 11.2222 13.1903 11.2035 13.2075 11.19L16.5556 8.39001Z" fill="#FEB528"/>
</g>
</g>
<defs>
<clipPath id="clip0_269_1115">
<rect width="17" height="18" fill="white" transform="translate(0.5)"/>
</clipPath>
<clipPath id="clip1_269_1115">
<rect width="17" height="18" fill="white" transform="translate(0.5)"/>
</clipPath>
</defs>
</svg>
