<svg width="24" height="28" viewBox="0 0 24 28" fill="none" xmlns="http://www.w3.org/2000/svg">
<path d="M11.4922 4.6626C5.15568 4.6626 0 9.81828 0 16.1548C0 22.4913 5.15568 27.647 11.4922 27.647C17.8287 27.647 22.9844 22.4913 22.9844 16.1548C22.9844 9.81828 17.8287 4.6626 11.4922 4.6626ZM11.4922 24.7739C6.73873 24.7739 2.87305 20.9082 2.87305 16.1548C2.87305 11.4013 6.73873 7.53565 11.4922 7.53565C16.2456 7.53565 20.1113 11.4013 20.1113 16.1548C20.1113 20.9082 16.2456 24.7739 11.4922 24.7739Z" fill="#53A8F8"/>
<path d="M10.0557 10.4087H12.9287V17.5913H10.0557V10.4087ZM7.18262 0.353027H15.8018V3.22607H7.18262V0.353027ZM21.9688 8.55127L19.0957 5.67822L21.127 3.64698L24 6.52002L21.9688 8.55127Z" fill="#53A8F8"/>
</svg>
