<svg width="13" height="15" viewBox="0 0 13 15" fill="none" xmlns="http://www.w3.org/2000/svg">
<path fill-rule="evenodd" clip-rule="evenodd" d="M7.4284 14.0626V3.20194L11.4131 7.22712C11.4994 7.31427 11.6019 7.38341 11.7147 7.43058C11.8275 7.47775 11.9483 7.50202 12.0704 7.50202C12.1925 7.50202 12.3134 7.47775 12.4262 7.43058C12.5389 7.38341 12.6414 7.31427 12.7277 7.22712C12.8141 7.13996 12.8825 7.0365 12.9292 6.92262C12.976 6.80875 13 6.6867 13 6.56344C13 6.44019 12.976 6.31814 12.9292 6.20426C12.8825 6.09039 12.8141 5.98692 12.7277 5.89977L7.15731 0.275395C7.07107 0.188099 6.96862 0.118838 6.85583 0.0715815C6.74303 0.0243247 6.62212 0 6.5 0C6.37788 0 6.25697 0.0243247 6.14417 0.0715815C6.03138 0.118838 5.92893 0.188099 5.84269 0.275395L0.272267 5.89977C0.0979375 6.07578 0 6.31452 0 6.56344C0 6.81237 0.0979375 7.0511 0.272267 7.22712C0.446596 7.40314 0.683038 7.50202 0.929577 7.50202C1.17612 7.50202 1.41256 7.40314 1.58689 7.22712L5.5716 3.20194V14.0626C5.5716 14.3112 5.66941 14.5496 5.84352 14.7254C6.01763 14.9012 6.25377 15 6.5 15C6.74623 15 6.98237 14.9012 7.15648 14.7254C7.33059 14.5496 7.4284 14.3112 7.4284 14.0626Z" fill="white"/>
</svg>
